<?xml version="1.0" encoding="UTF-8" standalone="no"?><svg xmlns="http://www.w3.org/2000/svg" xmlns:xlink="http://www.w3.org/1999/xlink" clip-rule="evenodd" stroke-miterlimit="10" viewBox="0 0 234 19"><desc>SVG generated by Keynote</desc><defs></defs><g transform="matrix(1.00, 0.00, -0.00, -1.00, 0.0, 19.0)"><text xml:space="preserve" font-family="GillSans-Light,Gill Sans" font-size="17.0" fill="#525252" transform="matrix(1.00, 0.00, -0.00, -1.00, 1.4, 5.1)">M</text><text xml:space="preserve" font-family="GillSans-Light,Gill Sans" font-size="17.0" fill="#525252" transform="matrix(1.00, 0.00, -0.00, -1.00, 14.7, 5.1)">é</text><text xml:space="preserve" font-family="GillSans-Light,Gill Sans" font-size="17.0" fill="#525252" transform="matrix(1.00, 0.00, -0.00, -1.00, 22.8, 5.1)">t</text><text xml:space="preserve" font-family="GillSans-Light,Gill Sans" font-size="17.0" fill="#525252" transform="matrix(1.00, 0.00, -0.00, -1.00, 28.0, 5.1)">o</text><text xml:space="preserve" font-family="GillSans-Light,Gill Sans" font-size="17.0" fill="#525252" transform="matrix(1.00, 0.00, -0.00, -1.00, 37.2, 5.1)">d</text><text xml:space="preserve" font-family="GillSans-Light,Gill Sans" font-size="17.0" fill="#525252" transform="matrix(1.00, 0.00, -0.00, -1.00, 45.9, 5.1)">o</text><text xml:space="preserve" font-family="GillSans-Light,Gill Sans" font-size="17.0" fill="#525252" transform="matrix(1.00, 0.00, -0.00, -1.00, 55.1, 5.1)"> </text><text xml:space="preserve" font-family="GillSans-Light,Gill Sans" font-size="17.0" fill="#525252" transform="matrix(1.00, 0.00, -0.00, -1.00, 59.8, 5.1)">q</text><text xml:space="preserve" font-family="GillSans-Light,Gill Sans" font-size="17.0" fill="#525252" transform="matrix(1.00, 0.00, -0.00, -1.00, 68.4, 5.1)">u</text><text xml:space="preserve" font-family="GillSans-Light,Gill Sans" font-size="17.0" fill="#525252" transform="matrix(1.00, 0.00, -0.00, -1.00, 76.8, 5.1)">e</text><text xml:space="preserve" font-family="GillSans-Light,Gill Sans" font-size="17.0" fill="#525252" transform="matrix(1.00, 0.00, -0.00, -1.00, 84.9, 5.1)"> </text><text xml:space="preserve" font-family="GillSans-Light,Gill Sans" font-size="17.0" fill="#525252" transform="matrix(1.00, 0.00, -0.00, -1.00, 89.6, 5.1)">s</text><text xml:space="preserve" font-family="GillSans-Light,Gill Sans" font-size="17.0" fill="#525252" transform="matrix(1.00, 0.00, -0.00, -1.00, 95.7, 5.1)">e</text><text xml:space="preserve" font-family="GillSans-Light,Gill Sans" font-size="17.0" fill="#525252" transform="matrix(1.00, 0.00, -0.00, -1.00, 103.8, 5.1)">r</text><text xml:space="preserve" font-family="GillSans-Light,Gill Sans" font-size="17.0" fill="#525252" transform="matrix(1.00, 0.00, -0.00, -1.00, 109.5, 5.1)">ã</text><text xml:space="preserve" font-family="GillSans-Light,Gill Sans" font-size="17.0" fill="#525252" transform="matrix(1.00, 0.00, -0.00, -1.00, 116.7, 5.1)">o</text><text xml:space="preserve" font-family="GillSans-Light,Gill Sans" font-size="17.0" fill="#525252" transform="matrix(1.00, 0.00, -0.00, -1.00, 125.9, 5.1)"> </text><text xml:space="preserve" font-family="GillSans-Light,Gill Sans" font-size="17.0" fill="#525252" transform="matrix(1.00, 0.00, -0.00, -1.00, 130.7, 5.1)">i</text><text xml:space="preserve" font-family="GillSans-Light,Gill Sans" font-size="17.0" fill="#525252" transform="matrix(1.00, 0.00, -0.00, -1.00, 133.9, 5.1)">m</text><text xml:space="preserve" font-family="GillSans-Light,Gill Sans" font-size="17.0" fill="#525252" transform="matrix(1.00, 0.00, -0.00, -1.00, 147.0, 5.1)">p</text><text xml:space="preserve" font-family="GillSans-Light,Gill Sans" font-size="17.0" fill="#525252" transform="matrix(1.00, 0.00, -0.00, -1.00, 155.6, 5.1)">l</text><text xml:space="preserve" font-family="GillSans-Light,Gill Sans" font-size="17.0" fill="#525252" transform="matrix(1.00, 0.00, -0.00, -1.00, 158.8, 5.1)">e</text><text xml:space="preserve" font-family="GillSans-Light,Gill Sans" font-size="17.0" fill="#525252" transform="matrix(1.00, 0.00, -0.00, -1.00, 167.0, 5.1)">m</text><text xml:space="preserve" font-family="GillSans-Light,Gill Sans" font-size="17.0" fill="#525252" transform="matrix(1.00, 0.00, -0.00, -1.00, 180.1, 5.1)">e</text><text xml:space="preserve" font-family="GillSans-Light,Gill Sans" font-size="17.0" fill="#525252" transform="matrix(1.00, 0.00, -0.00, -1.00, 188.2, 5.1)">n</text><text xml:space="preserve" font-family="GillSans-Light,Gill Sans" font-size="17.0" fill="#525252" transform="matrix(1.00, 0.00, -0.00, -1.00, 196.5, 5.1)">t</text><text xml:space="preserve" font-family="GillSans-Light,Gill Sans" font-size="17.0" fill="#525252" transform="matrix(1.00, 0.00, -0.00, -1.00, 201.7, 5.1)">a</text><text xml:space="preserve" font-family="GillSans-Light,Gill Sans" font-size="17.0" fill="#525252" transform="matrix(1.00, 0.00, -0.00, -1.00, 208.9, 5.1)">d</text><text xml:space="preserve" font-family="GillSans-Light,Gill Sans" font-size="17.0" fill="#525252" transform="matrix(1.00, 0.00, -0.00, -1.00, 217.6, 5.1)">o</text><text xml:space="preserve" font-family="GillSans-Light,Gill Sans" font-size="17.0" fill="#525252" transform="matrix(1.00, 0.00, -0.00, -1.00, 226.8, 5.1)">s</text></g></svg>