<?xml version="1.0" encoding="UTF-8" standalone="no"?><svg xmlns="http://www.w3.org/2000/svg" xmlns:xlink="http://www.w3.org/1999/xlink" clip-rule="evenodd" stroke-miterlimit="10" viewBox="0 0 107 19"><desc>SVG generated by Keynote</desc><defs></defs><g transform="matrix(1.00, 0.00, -0.00, -1.00, 0.0, 19.0)"><text xml:space="preserve" font-family="GillSans-Light,Gill Sans" font-size="17.0" fill="#525252" transform="matrix(1.00, 0.00, -0.00, -1.00, 1.1, 5.1)">p</text><text xml:space="preserve" font-family="GillSans-Light,Gill Sans" font-size="17.0" fill="#525252" transform="matrix(1.00, 0.00, -0.00, -1.00, 9.8, 5.1)">e</text><text xml:space="preserve" font-family="GillSans-Light,Gill Sans" font-size="17.0" fill="#525252" transform="matrix(1.00, 0.00, -0.00, -1.00, 17.9, 5.1)">l</text><text xml:space="preserve" font-family="GillSans-Light,Gill Sans" font-size="17.0" fill="#525252" transform="matrix(1.00, 0.00, -0.00, -1.00, 21.1, 5.1)">a</text><text xml:space="preserve" font-family="GillSans-Light,Gill Sans" font-size="17.0" fill="#525252" transform="matrix(1.00, 0.00, -0.00, -1.00, 28.4, 5.1)">s</text><text xml:space="preserve" font-family="GillSans-Light,Gill Sans" font-size="17.0" fill="#525252" transform="matrix(1.00, 0.00, -0.00, -1.00, 34.4, 5.1)"> </text><text xml:space="preserve" font-family="GillSans-Light,Gill Sans" font-size="17.0" fill="#525252" transform="matrix(1.00, 0.00, -0.00, -1.00, 39.1, 5.1)">s</text><text xml:space="preserve" font-family="GillSans-Light,Gill Sans" font-size="17.0" fill="#525252" transform="matrix(1.00, 0.00, -0.00, -1.00, 45.1, 5.1)">u</text><text xml:space="preserve" font-family="GillSans-Light,Gill Sans" font-size="17.0" fill="#525252" transform="matrix(1.00, 0.00, -0.00, -1.00, 53.4, 5.1)">b</text><text xml:space="preserve" font-family="GillSans-Light,Gill Sans" font-size="17.0" fill="#525252" transform="matrix(1.00, 0.00, -0.00, -1.00, 62.1, 5.1)">c</text><text xml:space="preserve" font-family="GillSans-Light,Gill Sans" font-size="17.0" fill="#525252" transform="matrix(1.00, 0.00, -0.00, -1.00, 69.2, 5.1)">l</text><text xml:space="preserve" font-family="GillSans-Light,Gill Sans" font-size="17.0" fill="#525252" transform="matrix(1.00, 0.00, -0.00, -1.00, 72.4, 5.1)">a</text><text xml:space="preserve" font-family="GillSans-Light,Gill Sans" font-size="17.0" fill="#525252" transform="matrix(1.00, 0.00, -0.00, -1.00, 79.6, 5.1)">s</text><text xml:space="preserve" font-family="GillSans-Light,Gill Sans" font-size="17.0" fill="#525252" transform="matrix(1.00, 0.00, -0.00, -1.00, 85.7, 5.1)">s</text><text xml:space="preserve" font-family="GillSans-Light,Gill Sans" font-size="17.0" fill="#525252" transform="matrix(1.00, 0.00, -0.00, -1.00, 91.7, 5.1)">e</text><text xml:space="preserve" font-family="GillSans-Light,Gill Sans" font-size="17.0" fill="#525252" transform="matrix(1.00, 0.00, -0.00, -1.00, 99.8, 5.1)">s</text></g></svg>