<?xml version="1.0" encoding="UTF-8" standalone="no"?><svg xmlns="http://www.w3.org/2000/svg" xmlns:xlink="http://www.w3.org/1999/xlink" clip-rule="evenodd" stroke-miterlimit="10" viewBox="0 0 666 73"><desc>SVG generated by Keynote</desc><defs></defs><g transform="matrix(1.00, 0.00, -0.00, -1.00, 0.0, 73.0)"><text xml:space="preserve" font-family="GillSans-SemiBold,Gill Sans" font-weight="bold" font-size="100.0" fill="#525252" transform="matrix(1.00, 0.00, -0.00, -1.00, -3.2, 3.0)">&lt;</text><text xml:space="preserve" font-family="GillSans-SemiBold,Gill Sans" font-weight="bold" font-size="100.0" fill="#525252" transform="matrix(1.00, 0.00, -0.00, -1.00, 55.2, 3.0)">&lt;</text><text xml:space="preserve" font-family="GillSans-SemiBold,Gill Sans" font-weight="bold" font-size="100.0" fill="#525252" transform="matrix(1.00, 0.00, -0.00, -1.00, 113.6, 3.0)"> </text><text xml:space="preserve" font-family="GillSans-SemiBold,Gill Sans" font-weight="bold" font-size="100.0" fill="#525252" transform="matrix(1.00, 0.00, -0.00, -1.00, 130.4, 3.0)">V</text><text xml:space="preserve" font-family="GillSans-SemiBold,Gill Sans" font-weight="bold" font-size="100.0" fill="#525252" transform="matrix(1.00, 0.00, -0.00, -1.00, 193.2, 3.0)">a</text><text xml:space="preserve" font-family="GillSans-SemiBold,Gill Sans" font-weight="bold" font-size="100.0" fill="#525252" transform="matrix(1.00, 0.00, -0.00, -1.00, 241.5, 3.0)">m</text><text xml:space="preserve" font-family="GillSans-SemiBold,Gill Sans" font-weight="bold" font-size="100.0" fill="#525252" transform="matrix(1.00, 0.00, -0.00, -1.00, 326.1, 3.0)">o</text><text xml:space="preserve" font-family="GillSans-SemiBold,Gill Sans" font-weight="bold" font-size="100.0" fill="#525252" transform="matrix(1.00, 0.00, -0.00, -1.00, 383.4, 3.0)">s</text><text xml:space="preserve" font-family="GillSans-SemiBold,Gill Sans" font-weight="bold" font-size="100.0" fill="#525252" transform="matrix(1.00, 0.00, -0.00, -1.00, 423.8, 3.0)"> </text><text xml:space="preserve" font-family="GillSans-SemiBold,Gill Sans" font-weight="bold" font-size="100.0" fill="#525252" transform="matrix(1.00, 0.00, -0.00, -1.00, 451.6, 3.0)">l</text><text xml:space="preserve" font-family="GillSans-SemiBold,Gill Sans" font-weight="bold" font-size="100.0" fill="#525252" transform="matrix(1.00, 0.00, -0.00, -1.00, 476.4, 3.0)">รก</text><text xml:space="preserve" font-family="GillSans-SemiBold,Gill Sans" font-weight="bold" font-size="100.0" fill="#525252" transform="matrix(1.00, 0.00, -0.00, -1.00, 524.6, 3.0)"> </text><text xml:space="preserve" font-family="GillSans-SemiBold,Gill Sans" font-weight="bold" font-size="100.0" fill="#525252" transform="matrix(1.00, 0.00, -0.00, -1.00, 552.4, 3.0)">&gt;</text><text xml:space="preserve" font-family="GillSans-SemiBold,Gill Sans" font-weight="bold" font-size="100.0" fill="#525252" transform="matrix(1.00, 0.00, -0.00, -1.00, 610.8, 3.0)">&gt;</text></g></svg>