<?xml version="1.0" encoding="UTF-8" standalone="no"?><svg xmlns="http://www.w3.org/2000/svg" xmlns:xlink="http://www.w3.org/1999/xlink" clip-rule="evenodd" stroke-miterlimit="10" viewBox="0 0 733 29"><desc>SVG generated by Keynote</desc><defs></defs><g transform="matrix(1.00, 0.00, -0.00, -1.00, 0.0, 29.0)"><text xml:space="preserve" font-family="GillSans-Light,Gill Sans" font-size="27.0" fill="#000000" transform="matrix(1.00, 0.00, -0.00, -1.00, 1.2, 7.7)">a</text><text xml:space="preserve" font-family="GillSans-Light,Gill Sans" font-size="27.0" fill="#000000" transform="matrix(1.00, 0.00, -0.00, -1.00, 12.7, 7.7)">s</text><text xml:space="preserve" font-family="GillSans-Light,Gill Sans" font-size="27.0" fill="#000000" transform="matrix(1.00, 0.00, -0.00, -1.00, 22.3, 7.7)"> </text><text xml:space="preserve" font-family="GillSans-Light,Gill Sans" font-size="27.0" fill="#000000" transform="matrix(1.00, 0.00, -0.00, -1.00, 29.8, 7.7)">s</text><text xml:space="preserve" font-family="GillSans-Light,Gill Sans" font-size="27.0" fill="#000000" transform="matrix(1.00, 0.00, -0.00, -1.00, 39.4, 7.7)">u</text><text xml:space="preserve" font-family="GillSans-Light,Gill Sans" font-size="27.0" fill="#000000" transform="matrix(1.00, 0.00, -0.00, -1.00, 52.6, 7.7)">b</text><text xml:space="preserve" font-family="GillSans-Light,Gill Sans" font-size="27.0" fill="#000000" transform="matrix(1.00, 0.00, -0.00, -1.00, 66.4, 7.7)">c</text><text xml:space="preserve" font-family="GillSans-Light,Gill Sans" font-size="27.0" fill="#000000" transform="matrix(1.00, 0.00, -0.00, -1.00, 77.6, 7.7)">l</text><text xml:space="preserve" font-family="GillSans-Light,Gill Sans" font-size="27.0" fill="#000000" transform="matrix(1.00, 0.00, -0.00, -1.00, 82.7, 7.7)">a</text><text xml:space="preserve" font-family="GillSans-Light,Gill Sans" font-size="27.0" fill="#000000" transform="matrix(1.00, 0.00, -0.00, -1.00, 94.2, 7.7)">s</text><text xml:space="preserve" font-family="GillSans-Light,Gill Sans" font-size="27.0" fill="#000000" transform="matrix(1.00, 0.00, -0.00, -1.00, 103.8, 7.7)">s</text><text xml:space="preserve" font-family="GillSans-Light,Gill Sans" font-size="27.0" fill="#000000" transform="matrix(1.00, 0.00, -0.00, -1.00, 113.3, 7.7)">e</text><text xml:space="preserve" font-family="GillSans-Light,Gill Sans" font-size="27.0" fill="#000000" transform="matrix(1.00, 0.00, -0.00, -1.00, 126.3, 7.7)">s</text><text xml:space="preserve" font-family="GillSans-Light,Gill Sans" font-size="27.0" fill="#000000" transform="matrix(1.00, 0.00, -0.00, -1.00, 135.8, 7.7)"> </text><text xml:space="preserve" font-family="GillSans-Light,Gill Sans" font-size="27.0" fill="#000000" transform="matrix(1.00, 0.00, -0.00, -1.00, 143.3, 7.7)">r</text><text xml:space="preserve" font-family="GillSans-Light,Gill Sans" font-size="27.0" fill="#000000" transform="matrix(1.00, 0.00, -0.00, -1.00, 152.3, 7.7)">e</text><text xml:space="preserve" font-family="GillSans-Light,Gill Sans" font-size="27.0" fill="#000000" transform="matrix(1.00, 0.00, -0.00, -1.00, 165.2, 7.7)">d</text><text xml:space="preserve" font-family="GillSans-Light,Gill Sans" font-size="27.0" fill="#000000" transform="matrix(1.00, 0.00, -0.00, -1.00, 179.0, 7.7)">e</text><text xml:space="preserve" font-family="GillSans-Light,Gill Sans" font-size="27.0" fill="#000000" transform="matrix(1.00, 0.00, -0.00, -1.00, 191.9, 7.7)">ï¬</text><text xml:space="preserve" font-family="GillSans-Light,Gill Sans" font-size="27.0" fill="#000000" transform="matrix(1.00, 0.00, -0.00, -1.00, 204.9, 7.7)">n</text><text xml:space="preserve" font-family="GillSans-Light,Gill Sans" font-size="27.0" fill="#000000" transform="matrix(1.00, 0.00, -0.00, -1.00, 218.1, 7.7)">a</text><text xml:space="preserve" font-family="GillSans-Light,Gill Sans" font-size="27.0" fill="#000000" transform="matrix(1.00, 0.00, -0.00, -1.00, 229.6, 7.7)">m</text><text xml:space="preserve" font-family="GillSans-Light,Gill Sans" font-size="27.0" fill="#000000" transform="matrix(1.00, 0.00, -0.00, -1.00, 250.4, 7.7)"> </text><text xml:space="preserve" font-family="GillSans-Light,Gill Sans" font-size="27.0" fill="#000000" transform="matrix(1.00, 0.00, -0.00, -1.00, 257.9, 7.7)">c</text><text xml:space="preserve" font-family="GillSans-Light,Gill Sans" font-size="27.0" fill="#000000" transform="matrix(1.00, 0.00, -0.00, -1.00, 269.2, 7.7)">e</text><text xml:space="preserve" font-family="GillSans-Light,Gill Sans" font-size="27.0" fill="#000000" transform="matrix(1.00, 0.00, -0.00, -1.00, 282.1, 7.7)">r</text><text xml:space="preserve" font-family="GillSans-Light,Gill Sans" font-size="27.0" fill="#000000" transform="matrix(1.00, 0.00, -0.00, -1.00, 293.3, 7.7)">t</text><text xml:space="preserve" font-family="GillSans-Light,Gill Sans" font-size="27.0" fill="#000000" transform="matrix(1.00, 0.00, -0.00, -1.00, 301.4, 7.7)">o</text><text xml:space="preserve" font-family="GillSans-Light,Gill Sans" font-size="27.0" fill="#000000" transform="matrix(1.00, 0.00, -0.00, -1.00, 316.1, 7.7)">s</text><text xml:space="preserve" font-family="GillSans-Light,Gill Sans" font-size="27.0" fill="#000000" transform="matrix(1.00, 0.00, -0.00, -1.00, 325.6, 7.7)"> </text><text xml:space="preserve" font-family="GillSans-Light,Gill Sans" font-size="27.0" fill="#000000" transform="matrix(1.00, 0.00, -0.00, -1.00, 333.1, 7.7)">p</text><text xml:space="preserve" font-family="GillSans-Light,Gill Sans" font-size="27.0" fill="#000000" transform="matrix(1.00, 0.00, -0.00, -1.00, 346.9, 7.7)">a</text><text xml:space="preserve" font-family="GillSans-Light,Gill Sans" font-size="27.0" fill="#000000" transform="matrix(1.00, 0.00, -0.00, -1.00, 358.4, 7.7)">s</text><text xml:space="preserve" font-family="GillSans-Light,Gill Sans" font-size="27.0" fill="#000000" transform="matrix(1.00, 0.00, -0.00, -1.00, 367.9, 7.7)">s</text><text xml:space="preserve" font-family="GillSans-Light,Gill Sans" font-size="27.0" fill="#000000" transform="matrix(1.00, 0.00, -0.00, -1.00, 377.5, 7.7)">o</text><text xml:space="preserve" font-family="GillSans-Light,Gill Sans" font-size="27.0" fill="#000000" transform="matrix(1.00, 0.00, -0.00, -1.00, 392.1, 7.7)">s</text><text xml:space="preserve" font-family="GillSans-Light,Gill Sans" font-size="27.0" fill="#000000" transform="matrix(1.00, 0.00, -0.00, -1.00, 401.7, 7.7)"> </text><text xml:space="preserve" font-family="GillSans-Light,Gill Sans" font-size="27.0" fill="#000000" transform="matrix(1.00, 0.00, -0.00, -1.00, 409.2, 7.7)">d</text><text xml:space="preserve" font-family="GillSans-Light,Gill Sans" font-size="27.0" fill="#000000" transform="matrix(1.00, 0.00, -0.00, -1.00, 422.9, 7.7)">e</text><text xml:space="preserve" font-family="GillSans-Light,Gill Sans" font-size="27.0" fill="#000000" transform="matrix(1.00, 0.00, -0.00, -1.00, 435.9, 7.7)"> </text><text xml:space="preserve" font-family="GillSans-Light,Gill Sans" font-size="27.0" fill="#000000" transform="matrix(1.00, 0.00, -0.00, -1.00, 443.4, 7.7)">u</text><text xml:space="preserve" font-family="GillSans-Light,Gill Sans" font-size="27.0" fill="#000000" transform="matrix(1.00, 0.00, -0.00, -1.00, 456.6, 7.7)">m</text><text xml:space="preserve" font-family="GillSans-Light,Gill Sans" font-size="27.0" fill="#000000" transform="matrix(1.00, 0.00, -0.00, -1.00, 477.4, 7.7)"> </text><text xml:space="preserve" font-family="GillSans-Light,Gill Sans" font-size="27.0" fill="#000000" transform="matrix(1.00, 0.00, -0.00, -1.00, 484.9, 7.7)">a</text><text xml:space="preserve" font-family="GillSans-Light,Gill Sans" font-size="27.0" fill="#000000" transform="matrix(1.00, 0.00, -0.00, -1.00, 496.4, 7.7)">l</text><text xml:space="preserve" font-family="GillSans-Light,Gill Sans" font-size="27.0" fill="#000000" transform="matrix(1.00, 0.00, -0.00, -1.00, 501.5, 7.7)">g</text><text xml:space="preserve" font-family="GillSans-Light,Gill Sans" font-size="27.0" fill="#000000" transform="matrix(1.00, 0.00, -0.00, -1.00, 513.0, 7.7)">o</text><text xml:space="preserve" font-family="GillSans-Light,Gill Sans" font-size="27.0" fill="#000000" transform="matrix(1.00, 0.00, -0.00, -1.00, 527.7, 7.7)">r</text><text xml:space="preserve" font-family="GillSans-Light,Gill Sans" font-size="27.0" fill="#000000" transform="matrix(1.00, 0.00, -0.00, -1.00, 537.3, 7.7)">i</text><text xml:space="preserve" font-family="GillSans-Light,Gill Sans" font-size="27.0" fill="#000000" transform="matrix(1.00, 0.00, -0.00, -1.00, 542.4, 7.7)">t</text><text xml:space="preserve" font-family="GillSans-Light,Gill Sans" font-size="27.0" fill="#000000" transform="matrix(1.00, 0.00, -0.00, -1.00, 550.6, 7.7)">m</text><text xml:space="preserve" font-family="GillSans-Light,Gill Sans" font-size="27.0" fill="#000000" transform="matrix(1.00, 0.00, -0.00, -1.00, 571.4, 7.7)">o</text><text xml:space="preserve" font-family="GillSans-Light,Gill Sans" font-size="27.0" fill="#000000" transform="matrix(1.00, 0.00, -0.00, -1.00, 586.0, 7.7)"> </text><text xml:space="preserve" font-family="GillSans-Light,Gill Sans" font-size="27.0" fill="#000000" transform="matrix(1.00, 0.00, -0.00, -1.00, 593.5, 7.7)">s</text><text xml:space="preserve" font-family="GillSans-Light,Gill Sans" font-size="27.0" fill="#000000" transform="matrix(1.00, 0.00, -0.00, -1.00, 603.1, 7.7)">e</text><text xml:space="preserve" font-family="GillSans-Light,Gill Sans" font-size="27.0" fill="#000000" transform="matrix(1.00, 0.00, -0.00, -1.00, 616.0, 7.7)">m</text><text xml:space="preserve" font-family="GillSans-Light,Gill Sans" font-size="27.0" fill="#000000" transform="matrix(1.00, 0.00, -0.00, -1.00, 636.8, 7.7)"> </text><text xml:space="preserve" font-family="GillSans-Light,Gill Sans" font-size="27.0" fill="#000000" transform="matrix(1.00, 0.00, -0.00, -1.00, 644.3, 7.7)">a</text><text xml:space="preserve" font-family="GillSans-Light,Gill Sans" font-size="27.0" fill="#000000" transform="matrix(1.00, 0.00, -0.00, -1.00, 655.8, 7.7)">l</text><text xml:space="preserve" font-family="GillSans-Light,Gill Sans" font-size="27.0" fill="#000000" transform="matrix(1.00, 0.00, -0.00, -1.00, 660.9, 7.7)">t</text><text xml:space="preserve" font-family="GillSans-Light,Gill Sans" font-size="27.0" fill="#000000" transform="matrix(1.00, 0.00, -0.00, -1.00, 669.0, 7.7)">e</text><text xml:space="preserve" font-family="GillSans-Light,Gill Sans" font-size="27.0" fill="#000000" transform="matrix(1.00, 0.00, -0.00, -1.00, 682.0, 7.7)">r</text><text xml:space="preserve" font-family="GillSans-Light,Gill Sans" font-size="27.0" fill="#000000" transform="matrix(1.00, 0.00, -0.00, -1.00, 691.6, 7.7)">a</text><text xml:space="preserve" font-family="GillSans-Light,Gill Sans" font-size="27.0" fill="#000000" transform="matrix(1.00, 0.00, -0.00, -1.00, 703.2, 7.7)">r</text><text xml:space="preserve" font-family="GillSans-Light,Gill Sans" font-size="27.0" fill="#000000" transform="matrix(1.00, 0.00, -0.00, -1.00, 712.1, 7.7)"> </text><text xml:space="preserve" font-family="GillSans-Light,Gill Sans" font-size="27.0" fill="#000000" transform="matrix(1.00, 0.00, -0.00, -1.00, 719.6, 7.7)">a</text></g></svg>