<?xml version="1.0" encoding="UTF-8" standalone="no"?><svg xmlns="http://www.w3.org/2000/svg" xmlns:xlink="http://www.w3.org/1999/xlink" clip-rule="evenodd" stroke-miterlimit="10" viewBox="0 0 775 29"><desc>SVG generated by Keynote</desc><defs></defs><g transform="matrix(1.00, 0.00, -0.00, -1.00, 0.0, 29.0)"><text xml:space="preserve" font-family="GillSans-Light,Gill Sans" font-size="27.0" fill="#000000" transform="matrix(1.00, 0.00, -0.00, -1.00, 0.6, 7.7)">D</text><text xml:space="preserve" font-family="GillSans-Light,Gill Sans" font-size="27.0" fill="#000000" transform="matrix(1.00, 0.00, -0.00, -1.00, 20.6, 7.7)">e</text><text xml:space="preserve" font-family="GillSans-Light,Gill Sans" font-size="27.0" fill="#000000" transform="matrix(1.00, 0.00, -0.00, -1.00, 33.5, 7.7)">ﬁ</text><text xml:space="preserve" font-family="GillSans-Light,Gill Sans" font-size="27.0" fill="#000000" transform="matrix(1.00, 0.00, -0.00, -1.00, 46.4, 7.7)">n</text><text xml:space="preserve" font-family="GillSans-Light,Gill Sans" font-size="27.0" fill="#000000" transform="matrix(1.00, 0.00, -0.00, -1.00, 59.7, 7.7)">e</text><text xml:space="preserve" font-family="GillSans-Light,Gill Sans" font-size="27.0" fill="#000000" transform="matrix(1.00, 0.00, -0.00, -1.00, 72.6, 7.7)"> </text><text xml:space="preserve" font-family="GillSans-Light,Gill Sans" font-size="27.0" fill="#000000" transform="matrix(1.00, 0.00, -0.00, -1.00, 80.1, 7.7)">o</text><text xml:space="preserve" font-family="GillSans-Light,Gill Sans" font-size="27.0" fill="#000000" transform="matrix(1.00, 0.00, -0.00, -1.00, 94.8, 7.7)"> </text><text xml:space="preserve" font-family="GillSans-Light,Gill Sans" font-size="27.0" fill="#000000" transform="matrix(1.00, 0.00, -0.00, -1.00, 102.2, 7.7)">e</text><text xml:space="preserve" font-family="GillSans-Light,Gill Sans" font-size="27.0" fill="#000000" transform="matrix(1.00, 0.00, -0.00, -1.00, 115.2, 7.7)">s</text><text xml:space="preserve" font-family="GillSans-Light,Gill Sans" font-size="27.0" fill="#000000" transform="matrix(1.00, 0.00, -0.00, -1.00, 124.7, 7.7)">q</text><text xml:space="preserve" font-family="GillSans-Light,Gill Sans" font-size="27.0" fill="#000000" transform="matrix(1.00, 0.00, -0.00, -1.00, 138.5, 7.7)">u</text><text xml:space="preserve" font-family="GillSans-Light,Gill Sans" font-size="27.0" fill="#000000" transform="matrix(1.00, 0.00, -0.00, -1.00, 151.7, 7.7)">e</text><text xml:space="preserve" font-family="GillSans-Light,Gill Sans" font-size="27.0" fill="#000000" transform="matrix(1.00, 0.00, -0.00, -1.00, 164.7, 7.7)">l</text><text xml:space="preserve" font-family="GillSans-Light,Gill Sans" font-size="27.0" fill="#000000" transform="matrix(1.00, 0.00, -0.00, -1.00, 169.7, 7.7)">e</text><text xml:space="preserve" font-family="GillSans-Light,Gill Sans" font-size="27.0" fill="#000000" transform="matrix(1.00, 0.00, -0.00, -1.00, 182.7, 7.7)">t</text><text xml:space="preserve" font-family="GillSans-Light,Gill Sans" font-size="27.0" fill="#000000" transform="matrix(1.00, 0.00, -0.00, -1.00, 190.8, 7.7)">o</text><text xml:space="preserve" font-family="GillSans-Light,Gill Sans" font-size="27.0" fill="#000000" transform="matrix(1.00, 0.00, -0.00, -1.00, 205.5, 7.7)"> </text><text xml:space="preserve" font-family="GillSans-Light,Gill Sans" font-size="27.0" fill="#000000" transform="matrix(1.00, 0.00, -0.00, -1.00, 213.0, 7.7)">d</text><text xml:space="preserve" font-family="GillSans-Light,Gill Sans" font-size="27.0" fill="#000000" transform="matrix(1.00, 0.00, -0.00, -1.00, 226.7, 7.7)">e</text><text xml:space="preserve" font-family="GillSans-Light,Gill Sans" font-size="27.0" fill="#000000" transform="matrix(1.00, 0.00, -0.00, -1.00, 239.6, 7.7)"> </text><text xml:space="preserve" font-family="GillSans-Light,Gill Sans" font-size="27.0" fill="#000000" transform="matrix(1.00, 0.00, -0.00, -1.00, 247.1, 7.7)">u</text><text xml:space="preserve" font-family="GillSans-Light,Gill Sans" font-size="27.0" fill="#000000" transform="matrix(1.00, 0.00, -0.00, -1.00, 260.4, 7.7)">m</text><text xml:space="preserve" font-family="GillSans-Light,Gill Sans" font-size="27.0" fill="#000000" transform="matrix(1.00, 0.00, -0.00, -1.00, 281.2, 7.7)"> </text><text xml:space="preserve" font-family="GillSans-Light,Gill Sans" font-size="27.0" fill="#000000" transform="matrix(1.00, 0.00, -0.00, -1.00, 288.7, 7.7)">a</text><text xml:space="preserve" font-family="GillSans-Light,Gill Sans" font-size="27.0" fill="#000000" transform="matrix(1.00, 0.00, -0.00, -1.00, 300.2, 7.7)">l</text><text xml:space="preserve" font-family="GillSans-Light,Gill Sans" font-size="27.0" fill="#000000" transform="matrix(1.00, 0.00, -0.00, -1.00, 305.3, 7.7)">g</text><text xml:space="preserve" font-family="GillSans-Light,Gill Sans" font-size="27.0" fill="#000000" transform="matrix(1.00, 0.00, -0.00, -1.00, 316.8, 7.7)">o</text><text xml:space="preserve" font-family="GillSans-Light,Gill Sans" font-size="27.0" fill="#000000" transform="matrix(1.00, 0.00, -0.00, -1.00, 331.4, 7.7)">r</text><text xml:space="preserve" font-family="GillSans-Light,Gill Sans" font-size="27.0" fill="#000000" transform="matrix(1.00, 0.00, -0.00, -1.00, 341.1, 7.7)">i</text><text xml:space="preserve" font-family="GillSans-Light,Gill Sans" font-size="27.0" fill="#000000" transform="matrix(1.00, 0.00, -0.00, -1.00, 346.2, 7.7)">t</text><text xml:space="preserve" font-family="GillSans-Light,Gill Sans" font-size="27.0" fill="#000000" transform="matrix(1.00, 0.00, -0.00, -1.00, 354.3, 7.7)">m</text><text xml:space="preserve" font-family="GillSans-Light,Gill Sans" font-size="27.0" fill="#000000" transform="matrix(1.00, 0.00, -0.00, -1.00, 375.1, 7.7)">o</text><text xml:space="preserve" font-family="GillSans-Light,Gill Sans" font-size="27.0" fill="#000000" transform="matrix(1.00, 0.00, -0.00, -1.00, 389.8, 7.7)"> </text><text xml:space="preserve" font-family="GillSans-Light,Gill Sans" font-size="27.0" fill="#000000" transform="matrix(1.00, 0.00, -0.00, -1.00, 397.3, 7.7)">d</text><text xml:space="preserve" font-family="GillSans-Light,Gill Sans" font-size="27.0" fill="#000000" transform="matrix(1.00, 0.00, -0.00, -1.00, 411.0, 7.7)">e</text><text xml:space="preserve" font-family="GillSans-Light,Gill Sans" font-size="27.0" fill="#000000" transform="matrix(1.00, 0.00, -0.00, -1.00, 424.0, 7.7)">n</text><text xml:space="preserve" font-family="GillSans-Light,Gill Sans" font-size="27.0" fill="#000000" transform="matrix(1.00, 0.00, -0.00, -1.00, 437.2, 7.7)">t</text><text xml:space="preserve" font-family="GillSans-Light,Gill Sans" font-size="27.0" fill="#000000" transform="matrix(1.00, 0.00, -0.00, -1.00, 445.3, 7.7)">r</text><text xml:space="preserve" font-family="GillSans-Light,Gill Sans" font-size="27.0" fill="#000000" transform="matrix(1.00, 0.00, -0.00, -1.00, 454.3, 7.7)">o</text><text xml:space="preserve" font-family="GillSans-Light,Gill Sans" font-size="27.0" fill="#000000" transform="matrix(1.00, 0.00, -0.00, -1.00, 469.0, 7.7)"> </text><text xml:space="preserve" font-family="GillSans-Light,Gill Sans" font-size="27.0" fill="#000000" transform="matrix(1.00, 0.00, -0.00, -1.00, 476.5, 7.7)">d</text><text xml:space="preserve" font-family="GillSans-Light,Gill Sans" font-size="27.0" fill="#000000" transform="matrix(1.00, 0.00, -0.00, -1.00, 490.2, 7.7)">e</text><text xml:space="preserve" font-family="GillSans-Light,Gill Sans" font-size="27.0" fill="#000000" transform="matrix(1.00, 0.00, -0.00, -1.00, 503.2, 7.7)"> </text><text xml:space="preserve" font-family="GillSans-Light,Gill Sans" font-size="27.0" fill="#000000" transform="matrix(1.00, 0.00, -0.00, -1.00, 510.6, 7.7)">u</text><text xml:space="preserve" font-family="GillSans-Light,Gill Sans" font-size="27.0" fill="#000000" transform="matrix(1.00, 0.00, -0.00, -1.00, 523.9, 7.7)">m</text><text xml:space="preserve" font-family="GillSans-Light,Gill Sans" font-size="27.0" fill="#000000" transform="matrix(1.00, 0.00, -0.00, -1.00, 544.7, 7.7)"> </text><text xml:space="preserve" font-family="GillSans-Light,Gill Sans" font-size="27.0" fill="#000000" transform="matrix(1.00, 0.00, -0.00, -1.00, 552.2, 7.7)">m</text><text xml:space="preserve" font-family="GillSans-Light,Gill Sans" font-size="27.0" fill="#000000" transform="matrix(1.00, 0.00, -0.00, -1.00, 573.0, 7.7)">é</text><text xml:space="preserve" font-family="GillSans-Light,Gill Sans" font-size="27.0" fill="#000000" transform="matrix(1.00, 0.00, -0.00, -1.00, 586.0, 7.7)">t</text><text xml:space="preserve" font-family="GillSans-Light,Gill Sans" font-size="27.0" fill="#000000" transform="matrix(1.00, 0.00, -0.00, -1.00, 594.1, 7.7)">o</text><text xml:space="preserve" font-family="GillSans-Light,Gill Sans" font-size="27.0" fill="#000000" transform="matrix(1.00, 0.00, -0.00, -1.00, 608.7, 7.7)">d</text><text xml:space="preserve" font-family="GillSans-Light,Gill Sans" font-size="27.0" fill="#000000" transform="matrix(1.00, 0.00, -0.00, -1.00, 622.5, 7.7)">o</text><text xml:space="preserve" font-family="GillSans-Light,Gill Sans" font-size="27.0" fill="#000000" transform="matrix(1.00, 0.00, -0.00, -1.00, 636.6, 7.7)">,</text><text xml:space="preserve" font-family="GillSans-Light,Gill Sans" font-size="27.0" fill="#000000" transform="matrix(1.00, 0.00, -0.00, -1.00, 639.2, 7.7)"> </text><text xml:space="preserve" font-family="GillSans-Light,Gill Sans" font-size="27.0" fill="#000000" transform="matrix(1.00, 0.00, -0.00, -1.00, 646.7, 7.7)">t</text><text xml:space="preserve" font-family="GillSans-Light,Gill Sans" font-size="27.0" fill="#000000" transform="matrix(1.00, 0.00, -0.00, -1.00, 654.8, 7.7)">r</text><text xml:space="preserve" font-family="GillSans-Light,Gill Sans" font-size="27.0" fill="#000000" transform="matrix(1.00, 0.00, -0.00, -1.00, 664.5, 7.7)">a</text><text xml:space="preserve" font-family="GillSans-Light,Gill Sans" font-size="27.0" fill="#000000" transform="matrix(1.00, 0.00, -0.00, -1.00, 676.0, 7.7)">n</text><text xml:space="preserve" font-family="GillSans-Light,Gill Sans" font-size="27.0" fill="#000000" transform="matrix(1.00, 0.00, -0.00, -1.00, 689.2, 7.7)">s</text><text xml:space="preserve" font-family="GillSans-Light,Gill Sans" font-size="27.0" fill="#000000" transform="matrix(1.00, 0.00, -0.00, -1.00, 698.8, 7.7)">f</text><text xml:space="preserve" font-family="GillSans-Light,Gill Sans" font-size="27.0" fill="#000000" transform="matrix(1.00, 0.00, -0.00, -1.00, 704.9, 7.7)">e</text><text xml:space="preserve" font-family="GillSans-Light,Gill Sans" font-size="27.0" fill="#000000" transform="matrix(1.00, 0.00, -0.00, -1.00, 717.8, 7.7)">r</text><text xml:space="preserve" font-family="GillSans-Light,Gill Sans" font-size="27.0" fill="#000000" transform="matrix(1.00, 0.00, -0.00, -1.00, 727.5, 7.7)">i</text><text xml:space="preserve" font-family="GillSans-Light,Gill Sans" font-size="27.0" fill="#000000" transform="matrix(1.00, 0.00, -0.00, -1.00, 732.6, 7.7)">n</text><text xml:space="preserve" font-family="GillSans-Light,Gill Sans" font-size="27.0" fill="#000000" transform="matrix(1.00, 0.00, -0.00, -1.00, 745.8, 7.7)">d</text><text xml:space="preserve" font-family="GillSans-Light,Gill Sans" font-size="27.0" fill="#000000" transform="matrix(1.00, 0.00, -0.00, -1.00, 759.6, 7.7)">o</text></g></svg>