<?xml version="1.0" encoding="UTF-8" standalone="no"?><svg xmlns="http://www.w3.org/2000/svg" xmlns:xlink="http://www.w3.org/1999/xlink" clip-rule="evenodd" stroke-miterlimit="10" viewBox="0 0 331 28"><desc>SVG generated by Keynote</desc><defs></defs><g transform="matrix(1.00, 0.00, -0.00, -1.00, 0.0, 28.0)"><text xml:space="preserve" font-family="GillSans-Light,Gill Sans" font-size="27.0" fill="#000000" transform="matrix(1.00, 0.00, -0.00, -1.00, 1.2, 7.7)">e</text><text xml:space="preserve" font-family="GillSans-Light,Gill Sans" font-size="27.0" fill="#000000" transform="matrix(1.00, 0.00, -0.00, -1.00, 14.2, 7.7)">s</text><text xml:space="preserve" font-family="GillSans-Light,Gill Sans" font-size="27.0" fill="#000000" transform="matrix(1.00, 0.00, -0.00, -1.00, 23.7, 7.7)">t</text><text xml:space="preserve" font-family="GillSans-Light,Gill Sans" font-size="27.0" fill="#000000" transform="matrix(1.00, 0.00, -0.00, -1.00, 31.9, 7.7)">r</text><text xml:space="preserve" font-family="GillSans-Light,Gill Sans" font-size="27.0" fill="#000000" transform="matrix(1.00, 0.00, -0.00, -1.00, 41.9, 7.7)">u</text><text xml:space="preserve" font-family="GillSans-Light,Gill Sans" font-size="27.0" fill="#000000" transform="matrix(1.00, 0.00, -0.00, -1.00, 55.2, 7.7)">t</text><text xml:space="preserve" font-family="GillSans-Light,Gill Sans" font-size="27.0" fill="#000000" transform="matrix(1.00, 0.00, -0.00, -1.00, 63.3, 7.7)">u</text><text xml:space="preserve" font-family="GillSans-Light,Gill Sans" font-size="27.0" fill="#000000" transform="matrix(1.00, 0.00, -0.00, -1.00, 76.6, 7.7)">r</text><text xml:space="preserve" font-family="GillSans-Light,Gill Sans" font-size="27.0" fill="#000000" transform="matrix(1.00, 0.00, -0.00, -1.00, 86.2, 7.7)">a</text><text xml:space="preserve" font-family="GillSans-Light,Gill Sans" font-size="27.0" fill="#000000" transform="matrix(1.00, 0.00, -0.00, -1.00, 97.8, 7.7)"> </text><text xml:space="preserve" font-family="GillSans-Light,Gill Sans" font-size="27.0" fill="#000000" transform="matrix(1.00, 0.00, -0.00, -1.00, 105.3, 7.7)">d</text><text xml:space="preserve" font-family="GillSans-Light,Gill Sans" font-size="27.0" fill="#000000" transform="matrix(1.00, 0.00, -0.00, -1.00, 119.0, 7.7)">o</text><text xml:space="preserve" font-family="GillSans-Light,Gill Sans" font-size="27.0" fill="#000000" transform="matrix(1.00, 0.00, -0.00, -1.00, 133.6, 7.7)"> </text><text xml:space="preserve" font-family="GillSans-Light,Gill Sans" font-size="27.0" fill="#000000" transform="matrix(1.00, 0.00, -0.00, -1.00, 141.1, 7.7)">p</text><text xml:space="preserve" font-family="GillSans-Light,Gill Sans" font-size="27.0" fill="#000000" transform="matrix(1.00, 0.00, -0.00, -1.00, 154.9, 7.7)">r</text><text xml:space="preserve" font-family="GillSans-Light,Gill Sans" font-size="27.0" fill="#000000" transform="matrix(1.00, 0.00, -0.00, -1.00, 163.9, 7.7)">รณ</text><text xml:space="preserve" font-family="GillSans-Light,Gill Sans" font-size="27.0" fill="#000000" transform="matrix(1.00, 0.00, -0.00, -1.00, 178.5, 7.7)">p</text><text xml:space="preserve" font-family="GillSans-Light,Gill Sans" font-size="27.0" fill="#000000" transform="matrix(1.00, 0.00, -0.00, -1.00, 192.3, 7.7)">r</text><text xml:space="preserve" font-family="GillSans-Light,Gill Sans" font-size="27.0" fill="#000000" transform="matrix(1.00, 0.00, -0.00, -1.00, 201.9, 7.7)">i</text><text xml:space="preserve" font-family="GillSans-Light,Gill Sans" font-size="27.0" fill="#000000" transform="matrix(1.00, 0.00, -0.00, -1.00, 207.0, 7.7)">o</text><text xml:space="preserve" font-family="GillSans-Light,Gill Sans" font-size="27.0" fill="#000000" transform="matrix(1.00, 0.00, -0.00, -1.00, 221.7, 7.7)"> </text><text xml:space="preserve" font-family="GillSans-Light,Gill Sans" font-size="27.0" fill="#000000" transform="matrix(1.00, 0.00, -0.00, -1.00, 229.2, 7.7)">a</text><text xml:space="preserve" font-family="GillSans-Light,Gill Sans" font-size="27.0" fill="#000000" transform="matrix(1.00, 0.00, -0.00, -1.00, 240.7, 7.7)">l</text><text xml:space="preserve" font-family="GillSans-Light,Gill Sans" font-size="27.0" fill="#000000" transform="matrix(1.00, 0.00, -0.00, -1.00, 245.7, 7.7)">g</text><text xml:space="preserve" font-family="GillSans-Light,Gill Sans" font-size="27.0" fill="#000000" transform="matrix(1.00, 0.00, -0.00, -1.00, 257.3, 7.7)">o</text><text xml:space="preserve" font-family="GillSans-Light,Gill Sans" font-size="27.0" fill="#000000" transform="matrix(1.00, 0.00, -0.00, -1.00, 271.9, 7.7)">r</text><text xml:space="preserve" font-family="GillSans-Light,Gill Sans" font-size="27.0" fill="#000000" transform="matrix(1.00, 0.00, -0.00, -1.00, 281.6, 7.7)">i</text><text xml:space="preserve" font-family="GillSans-Light,Gill Sans" font-size="27.0" fill="#000000" transform="matrix(1.00, 0.00, -0.00, -1.00, 286.6, 7.7)">t</text><text xml:space="preserve" font-family="GillSans-Light,Gill Sans" font-size="27.0" fill="#000000" transform="matrix(1.00, 0.00, -0.00, -1.00, 294.8, 7.7)">m</text><text xml:space="preserve" font-family="GillSans-Light,Gill Sans" font-size="27.0" fill="#000000" transform="matrix(1.00, 0.00, -0.00, -1.00, 315.6, 7.7)">o</text></g></svg>