<?xml version="1.0" encoding="UTF-8" standalone="no"?><svg xmlns="http://www.w3.org/2000/svg" xmlns:xlink="http://www.w3.org/1999/xlink" clip-rule="evenodd" stroke-miterlimit="10" viewBox="0 0 1024 768"><desc>SVG generated by Keynote</desc><defs></defs><g transform="matrix(1.00, 0.00, -0.00, -1.00, 0.0, 768.0)"><g><clipPath id="clip0x600001ab7ac0"><path d="M 0.0 768.0 L 1024.0 768.0 L 1024.0 0.0 L 0.0 0.0 Z M 0.0 768.0 "></path></clipPath><g clip-path="url(#clip0x600001ab7ac0)"><image xlink:href="../../F1598181-E8FD-4FD0-8722-D3EA21CEF909/assets/574DCE55A4CF432400CBDDDE1DFDFC9B.jpeg" width="2048.00" height="1536.00" transform="matrix(0.50, 0.00, -0.00, -0.50, 0.0, 768.0)"></image></g></g><g opacity="0.14"><g><clipPath id="clip0x608001cac900"><path d="M 281.0 229.0 L 743.0 229.0 L 743.0 -7.0 L 281.0 -7.0 Z M 281.3 228.5 "></path></clipPath><g clip-path="url(#clip0x608001cac900)"><g><clipPath id="clip0x6080018b6c20"><path d="M 280.0 0.0 L 744.0 0.0 L 744.0 230.0 L 280.0 230.0 Z M 280.0 0.0 "></path></clipPath><g clip-path="url(#clip0x6080018b6c20)"><image xlink:href="../../F1598181-E8FD-4FD0-8722-D3EA21CEF909/assets/8CF606738CD1201E387FE74C5B1F532A.png" width="313.00" height="160.00" transform="matrix(1.48, 0.00, -0.00, -1.47, 281.0, 228.0)"></image></g></g></g></g></g><text xml:space="preserve" font-family="GillSans-SemiBold,Gill Sans" font-weight="bold" font-size="70.0" fill="#525252" transform="matrix(1.00, 0.00, -0.00, -1.00, 462.7, 627.1)">C</text><text xml:space="preserve" font-family="GillSans-SemiBold,Gill Sans" font-weight="bold" font-size="70.0" fill="#525252" transform="matrix(1.00, 0.00, -0.00, -1.00, 513.5, 627.1)">o</text><text xml:space="preserve" font-family="GillSans-SemiBold,Gill Sans" font-weight="bold" font-size="70.0" fill="#525252" transform="matrix(1.00, 0.00, -0.00, -1.00, 553.6, 627.1)">m</text><text xml:space="preserve" font-family="GillSans-SemiBold,Gill Sans" font-weight="bold" font-size="70.0" fill="#525252" transform="matrix(1.00, 0.00, -0.00, -1.00, 612.9, 627.1)">p</text><text xml:space="preserve" font-family="GillSans-SemiBold,Gill Sans" font-weight="bold" font-size="70.0" fill="#525252" transform="matrix(1.00, 0.00, -0.00, -1.00, 651.2, 627.1)">a</text><text xml:space="preserve" font-family="GillSans-SemiBold,Gill Sans" font-weight="bold" font-size="70.0" fill="#525252" transform="matrix(1.00, 0.00, -0.00, -1.00, 685.0, 627.1)">r</text><text xml:space="preserve" font-family="GillSans-SemiBold,Gill Sans" font-weight="bold" font-size="70.0" fill="#525252" transform="matrix(1.00, 0.00, -0.00, -1.00, 714.3, 627.1)">a</text><text xml:space="preserve" font-family="GillSans-SemiBold,Gill Sans" font-weight="bold" font-size="70.0" fill="#525252" transform="matrix(1.00, 0.00, -0.00, -1.00, 748.1, 627.1)">รง</text><text xml:space="preserve" font-family="GillSans-SemiBold,Gill Sans" font-weight="bold" font-size="70.0" fill="#525252" transform="matrix(1.00, 0.00, -0.00, -1.00, 780.3, 627.1)">รฃ</text><text xml:space="preserve" font-family="GillSans-SemiBold,Gill Sans" font-weight="bold" font-size="70.0" fill="#525252" transform="matrix(1.00, 0.00, -0.00, -1.00, 814.1, 627.1)">o</text><path d="M 942.0 682.0 L 942.0 701.6 L 878.9 651.6 L 942.0 601.6 L 942.0 621.0 L 1023.0 621.0 L 1023.0 682.0 Z M 941.9 681.8 " fill="#7F8685"></path><path d="M -0.0 0.0 L 1024.0 0.0 " fill="none" stroke="#595E5D" stroke-width="2.00" transform="matrix(1.00, 0.00, 0.00, -1.00, 0.0, 571.0)"></path><path d="M -1.0 621.0 L -1.0 682.0 L 406.0 682.0 L 406.0 621.0 Z M -0.6 621.4 " fill="#7F8685"></path></g></svg>