<?xml version="1.0" encoding="UTF-8" standalone="no"?><svg xmlns="http://www.w3.org/2000/svg" xmlns:xlink="http://www.w3.org/1999/xlink" clip-rule="evenodd" stroke-miterlimit="10" viewBox="0 0 1024 768"><desc>SVG generated by Keynote</desc><defs></defs><g transform="matrix(1.00, 0.00, -0.00, -1.00, 0.0, 768.0)"><g><clipPath id="clip0x600001aa51c0"><path d="M 0.0 768.0 L 1024.0 768.0 L 1024.0 0.0 L 0.0 0.0 Z M 0.0 768.0 "></path></clipPath><g clip-path="url(#clip0x600001aa51c0)"><image xlink:href="../../F1598181-E8FD-4FD0-8722-D3EA21CEF909/assets/574DCE55A4CF432400CBDDDE1DFDFC9B.jpeg" width="2048.00" height="1536.00" transform="matrix(0.50, 0.00, -0.00, -0.50, 0.0, 768.0)"></image></g></g><text xml:space="preserve" font-family="GillSans-Light,Gill Sans" font-size="36.5" fill="#525252" transform="matrix(1.00, 0.00, -0.00, -1.00, 689.6, 278.0)">P</text><text xml:space="preserve" font-family="GillSans-Light,Gill Sans" font-size="36.5" fill="#525252" transform="matrix(1.00, 0.00, -0.00, -1.00, 707.5, 278.0)">a</text><text xml:space="preserve" font-family="GillSans-Light,Gill Sans" font-size="36.5" fill="#525252" transform="matrix(1.00, 0.00, -0.00, -1.00, 723.0, 278.0)">d</text><text xml:space="preserve" font-family="GillSans-Light,Gill Sans" font-size="36.5" fill="#525252" transform="matrix(1.00, 0.00, -0.00, -1.00, 741.6, 278.0)">r</text><text xml:space="preserve" font-family="GillSans-Light,Gill Sans" font-size="36.5" fill="#525252" transform="matrix(1.00, 0.00, -0.00, -1.00, 753.8, 278.0)">õ</text><text xml:space="preserve" font-family="GillSans-Light,Gill Sans" font-size="36.5" fill="#525252" transform="matrix(1.00, 0.00, -0.00, -1.00, 773.6, 278.0)">e</text><text xml:space="preserve" font-family="GillSans-Light,Gill Sans" font-size="36.5" fill="#525252" transform="matrix(1.00, 0.00, -0.00, -1.00, 791.0, 278.0)">s</text><text xml:space="preserve" font-family="GillSans-Light,Gill Sans" font-size="36.5" fill="#525252" transform="matrix(1.00, 0.00, -0.00, -1.00, 803.9, 278.0)"> </text><text xml:space="preserve" font-family="GillSans-Light,Gill Sans" font-size="36.5" fill="#525252" transform="matrix(1.00, 0.00, -0.00, -1.00, 814.1, 278.0)">d</text><text xml:space="preserve" font-family="GillSans-Light,Gill Sans" font-size="36.5" fill="#525252" transform="matrix(1.00, 0.00, -0.00, -1.00, 832.7, 278.0)">e</text><text xml:space="preserve" font-family="GillSans-Light,Gill Sans" font-size="36.5" fill="#525252" transform="matrix(1.00, 0.00, -0.00, -1.00, 850.1, 278.0)"> </text><text xml:space="preserve" font-family="GillSans-Light,Gill Sans" font-size="36.5" fill="#525252" transform="matrix(1.00, 0.00, -0.00, -1.00, 860.3, 278.0)">P</text><text xml:space="preserve" font-family="GillSans-Light,Gill Sans" font-size="36.5" fill="#525252" transform="matrix(1.00, 0.00, -0.00, -1.00, 878.9, 278.0)">r</text><text xml:space="preserve" font-family="GillSans-Light,Gill Sans" font-size="36.5" fill="#525252" transform="matrix(1.00, 0.00, -0.00, -1.00, 891.0, 278.0)">o</text><text xml:space="preserve" font-family="GillSans-Light,Gill Sans" font-size="36.5" fill="#525252" transform="matrix(1.00, 0.00, -0.00, -1.00, 910.8, 278.0)">j</text><text xml:space="preserve" font-family="GillSans-Light,Gill Sans" font-size="36.5" fill="#525252" transform="matrix(1.00, 0.00, -0.00, -1.00, 917.6, 278.0)">e</text><text xml:space="preserve" font-family="GillSans-Light,Gill Sans" font-size="36.5" fill="#525252" transform="matrix(1.00, 0.00, -0.00, -1.00, 935.1, 278.0)">t</text><text xml:space="preserve" font-family="GillSans-Light,Gill Sans" font-size="36.5" fill="#525252" transform="matrix(1.00, 0.00, -0.00, -1.00, 946.1, 278.0)">o</text><text xml:space="preserve" font-family="Helvetica,Helvetica" font-size="52.0" fill="#808181" transform="matrix(1.00, 0.00, -0.00, -1.00, 694.7, 460.0)">T</text><text xml:space="preserve" font-family="Helvetica,Helvetica" font-size="52.0" fill="#808181" transform="matrix(1.00, 0.00, -0.00, -1.00, 726.5, 460.0)">E</text><text xml:space="preserve" font-family="Helvetica,Helvetica" font-size="52.0" fill="#808181" transform="matrix(1.00, 0.00, -0.00, -1.00, 761.2, 460.0)">M</text><text xml:space="preserve" font-family="Helvetica,Helvetica" font-size="52.0" fill="#808181" transform="matrix(1.00, 0.00, -0.00, -1.00, 804.5, 460.0)">P</text><text xml:space="preserve" font-family="Helvetica,Helvetica" font-size="52.0" fill="#808181" transform="matrix(1.00, 0.00, -0.00, -1.00, 839.2, 460.0)">L</text><text xml:space="preserve" font-family="Helvetica,Helvetica" font-size="52.0" fill="#808181" transform="matrix(1.00, 0.00, -0.00, -1.00, 868.1, 460.0)">A</text><text xml:space="preserve" font-family="Helvetica,Helvetica" font-size="52.0" fill="#808181" transform="matrix(1.00, 0.00, -0.00, -1.00, 899.0, 460.0)">T</text><text xml:space="preserve" font-family="Helvetica,Helvetica" font-size="52.0" fill="#808181" transform="matrix(1.00, 0.00, -0.00, -1.00, 930.7, 460.0)">E</text><path d="M 0.2 0.5 L 576.2 0.5 " fill="none" stroke="#595E5D" stroke-width="1.00" transform="matrix(1.00, 0.00, 0.00, -1.00, 393.8, 328.0)"></path><text xml:space="preserve" font-family="Helvetica-Bold,Helvetica" font-weight="bold" font-size="130.0" fill="#19488A" transform="matrix(1.00, 0.00, -0.00, -1.00, 403.1, 346.8)">M</text><text xml:space="preserve" font-family="Helvetica-Bold,Helvetica" font-weight="bold" font-size="130.0" fill="#19488A" transform="matrix(1.00, 0.00, -0.00, -1.00, 511.4, 346.8)">E</text><text xml:space="preserve" font-family="Helvetica-Bold,Helvetica" font-weight="bold" font-size="130.0" fill="#19488A" transform="matrix(1.00, 0.00, -0.00, -1.00, 598.1, 346.8)">T</text><text xml:space="preserve" font-family="Helvetica-Bold,Helvetica" font-weight="bold" font-size="130.0" fill="#19488A" transform="matrix(1.00, 0.00, -0.00, -1.00, 677.5, 346.8)">H</text><text xml:space="preserve" font-family="Helvetica-Bold,Helvetica" font-weight="bold" font-size="130.0" fill="#19488A" transform="matrix(1.00, 0.00, -0.00, -1.00, 771.4, 346.8)">O</text><text xml:space="preserve" font-family="Helvetica-Bold,Helvetica" font-weight="bold" font-size="130.0" fill="#19488A" transform="matrix(1.00, 0.00, -0.00, -1.00, 872.5, 346.8)">D</text><text xml:space="preserve" font-family="GillSans-Light,Gill Sans" font-size="24.0" fill="#19488A" transform="matrix(1.00, 0.00, -0.00, -1.00, 771.2, 245.2)">P</text><text xml:space="preserve" font-family="GillSans-Light,Gill Sans" font-size="24.0" fill="#19488A" transform="matrix(1.00, 0.00, -0.00, -1.00, 782.3, 245.2)">o</text><text xml:space="preserve" font-family="GillSans-Light,Gill Sans" font-size="24.0" fill="#19488A" transform="matrix(1.00, 0.00, -0.00, -1.00, 795.3, 245.2)">r</text><text xml:space="preserve" font-family="GillSans-Light,Gill Sans" font-size="24.0" fill="#19488A" transform="matrix(1.00, 0.00, -0.00, -1.00, 805.3, 245.2)">:</text><text xml:space="preserve" font-family="GillSans-Light,Gill Sans" font-size="24.0" fill="#19488A" transform="matrix(1.00, 0.00, -0.00, -1.00, 807.6, 245.2)"> </text><text xml:space="preserve" font-family="GillSans-Light,Gill Sans" font-size="24.0" fill="#19488A" transform="matrix(1.00, 0.00, -0.00, -1.00, 814.3, 245.2)">E</text><text xml:space="preserve" font-family="GillSans-Light,Gill Sans" font-size="24.0" fill="#19488A" transform="matrix(1.00, 0.00, -0.00, -1.00, 826.1, 245.2)">d</text><text xml:space="preserve" font-family="GillSans-Light,Gill Sans" font-size="24.0" fill="#19488A" transform="matrix(1.00, 0.00, -0.00, -1.00, 838.3, 245.2)">i</text><text xml:space="preserve" font-family="GillSans-Light,Gill Sans" font-size="24.0" fill="#19488A" transform="matrix(1.00, 0.00, -0.00, -1.00, 842.8, 245.2)">a</text><text xml:space="preserve" font-family="GillSans-Light,Gill Sans" font-size="24.0" fill="#19488A" transform="matrix(1.00, 0.00, -0.00, -1.00, 853.0, 245.2)">i</text><text xml:space="preserve" font-family="GillSans-Light,Gill Sans" font-size="24.0" fill="#19488A" transform="matrix(1.00, 0.00, -0.00, -1.00, 857.6, 245.2)">m</text><text xml:space="preserve" font-family="GillSans-Light,Gill Sans" font-size="24.0" fill="#19488A" transform="matrix(1.00, 0.00, -0.00, -1.00, 876.1, 245.2)">o</text><text xml:space="preserve" font-family="GillSans-Light,Gill Sans" font-size="24.0" fill="#19488A" transform="matrix(1.00, 0.00, -0.00, -1.00, 889.1, 245.2)"> </text><text xml:space="preserve" font-family="GillSans-Light,Gill Sans" font-size="24.0" fill="#19488A" transform="matrix(1.00, 0.00, -0.00, -1.00, 895.7, 245.2)">B</text><text xml:space="preserve" font-family="GillSans-Light,Gill Sans" font-size="24.0" fill="#19488A" transform="matrix(1.00, 0.00, -0.00, -1.00, 908.5, 245.2)">o</text><text xml:space="preserve" font-family="GillSans-Light,Gill Sans" font-size="24.0" fill="#19488A" transform="matrix(1.00, 0.00, -0.00, -1.00, 921.5, 245.2)">r</text><text xml:space="preserve" font-family="GillSans-Light,Gill Sans" font-size="24.0" fill="#19488A" transform="matrix(1.00, 0.00, -0.00, -1.00, 930.1, 245.2)">g</text><text xml:space="preserve" font-family="GillSans-Light,Gill Sans" font-size="24.0" fill="#19488A" transform="matrix(1.00, 0.00, -0.00, -1.00, 940.3, 245.2)">e</text><text xml:space="preserve" font-family="GillSans-Light,Gill Sans" font-size="24.0" fill="#19488A" transform="matrix(1.00, 0.00, -0.00, -1.00, 951.8, 245.2)">s</text><g opacity="0.14"><g><clipPath id="clip0x6000016b5600"><path d="M 281.0 237.0 L 743.0 237.0 L 743.0 1.0 L 281.0 1.0 Z M 281.3 236.5 "></path></clipPath><g clip-path="url(#clip0x6000016b5600)"><g><clipPath id="clip0x600001aa5220"><path d="M 279.0 0.0 L 744.0 0.0 L 744.0 238.0 L 279.0 238.0 Z M 279.0 0.0 "></path></clipPath><g clip-path="url(#clip0x600001aa5220)"><image xlink:href="8CF606738CD1201E387FE74C5B1F532A.png" width="313.00" height="160.00" transform="matrix(1.48, 0.00, -0.00, -1.48, 281.0, 237.0)"></image></g></g></g></g></g><path d="M 0.0 354.0 L 0.0 414.0 L 355.0 414.0 L 355.0 354.0 Z M -0.3 353.8 " fill="#7F8685"></path><path d="M 903.0 617.0 L 882.8 617.0 L 932.8 554.1 L 982.8 617.0 L 963.0 617.0 L 963.0 768.0 L 903.0 768.0 Z M 902.6 617.1 " fill="#7F8685"></path></g></svg>