<?xml version="1.0" encoding="UTF-8" standalone="no"?><svg xmlns="http://www.w3.org/2000/svg" xmlns:xlink="http://www.w3.org/1999/xlink" clip-rule="evenodd" stroke-miterlimit="10" viewBox="0 0 1024 768"><desc>SVG generated by Keynote</desc><defs></defs><g transform="matrix(1.00, 0.00, -0.00, -1.00, 0.0, 768.0)"><g><clipPath id="clip0x600001aaa680"><path d="M 0.0 768.0 L 1024.0 768.0 L 1024.0 0.0 L 0.0 0.0 Z M 0.0 768.0 "></path></clipPath><g clip-path="url(#clip0x600001aaa680)"><image xlink:href="../../F1598181-E8FD-4FD0-8722-D3EA21CEF909/assets/574DCE55A4CF432400CBDDDE1DFDFC9B.jpeg" width="2048.00" height="1536.00" transform="matrix(0.50, 0.00, -0.00, -0.50, 0.0, 768.0)"></image></g></g><image xlink:href="../../E5D18D59-3850-4B4A-AF83-74FCB0F755E4/assets/0441AAAE4EBC9A0E5187C968D8119C32.png" width="1121.00" height="502.00" transform="matrix(0.91, 0.00, -0.00, -0.91, 0.0, 717.0)"></image><g opacity="0.14"><g><clipPath id="clip0x600001aa6c60"><path d="M 281.0 229.0 L 743.0 229.0 L 743.0 -7.0 L 281.0 -7.0 Z M 281.3 228.5 "></path></clipPath><g clip-path="url(#clip0x600001aa6c60)"><g><clipPath id="clip0x6000018b2b40"><path d="M 280.0 0.0 L 744.0 0.0 L 744.0 230.0 L 280.0 230.0 Z M 280.0 0.0 "></path></clipPath><g clip-path="url(#clip0x6000018b2b40)"><image xlink:href="../../F1598181-E8FD-4FD0-8722-D3EA21CEF909/assets/8CF606738CD1201E387FE74C5B1F532A.png" width="313.00" height="160.00" transform="matrix(1.48, 0.00, -0.00, -1.47, 281.0, 228.0)"></image></g></g></g></g></g><path d="M 81.0 149.0 L 141.0 149.0 L 141.0 0.0 L 81.0 0.0 Z M 80.6 149.2 " fill="#7F8685"></path><path d="M 162.0 89.0 L 162.0 69.6 L 224.9 119.6 L 162.0 169.6 L 162.0 150.0 L 81.0 150.0 L 81.0 89.0 Z M 161.9 89.4 " fill="#7F8685"></path><text xml:space="preserve" font-family="GillSans-SemiBold,Gill Sans" font-weight="bold" font-size="70.0" fill="#525252" transform="matrix(1.00, 0.00, -0.00, -1.00, 249.2, 94.1)">U</text><text xml:space="preserve" font-family="GillSans-SemiBold,Gill Sans" font-weight="bold" font-size="70.0" fill="#525252" transform="matrix(1.00, 0.00, -0.00, -1.00, 302.6, 94.1)">M</text><text xml:space="preserve" font-family="GillSans-SemiBold,Gill Sans" font-weight="bold" font-size="70.0" fill="#525252" transform="matrix(1.00, 0.00, -0.00, -1.00, 361.1, 94.1)">L</text></g></svg>