<?xml version="1.0" encoding="UTF-8" standalone="no"?><svg xmlns="http://www.w3.org/2000/svg" xmlns:xlink="http://www.w3.org/1999/xlink" clip-rule="evenodd" stroke-miterlimit="10" viewBox="0 0 1024 768"><desc>SVG generated by Keynote</desc><defs></defs><g transform="matrix(1.00, 0.00, -0.00, -1.00, 0.0, 768.0)"><g><clipPath id="clip0x6000016a2100"><path d="M 0.0 768.0 L 1024.0 768.0 L 1024.0 0.0 L 0.0 0.0 Z M 0.0 768.0 "></path></clipPath><g clip-path="url(#clip0x6000016a2100)"><image xlink:href="../../F1598181-E8FD-4FD0-8722-D3EA21CEF909/assets/574DCE55A4CF432400CBDDDE1DFDFC9B.jpeg" width="2048.00" height="1536.00" transform="matrix(0.50, 0.00, -0.00, -0.50, 0.0, 768.0)"></image></g></g><image xlink:href="../../AC473CDF-FCB4-479A-B8D5-5D6976843A85/assets/CC87F3868A0B57700443EB4788C49AAC.png" width="1040.00" height="768.00" transform="matrix(0.98, 0.00, -0.00, -1.00, 0.0, 768.0)"></image><path d="M 0.0 0.4 L 1014.0 0.4 L 1014.0 148.4 L 0.0 148.4 Z M 0.0 0.0 " fill="none" stroke="#F5FF00" stroke-width="10.00" transform="matrix(1.00, 0.00, 0.00, -1.00, 4.0, 763.4)"></path><path d="M 0.5 0.1 L 1019.5 0.1 L 1019.5 70.1 L 0.5 70.1 Z M 0.0 0.0 " fill="none" stroke="#F5FF00" stroke-width="9.00" transform="matrix(1.00, 0.00, 0.00, -1.00, 3.0, 614.6)"></path><path d="M 0.5 0.5 L 1020.5 0.5 L 1020.5 52.5 L 0.5 52.5 Z M 0.0 0.0 " fill="none" stroke="#F5FF00" stroke-width="9.00" transform="matrix(1.00, 0.00, 0.00, -1.00, 1.0, 57.0)"></path><path d="M 0.5 0.1 L 1016.5 0.1 L 1016.5 473.1 L 0.5 473.1 Z M 0.0 0.0 " fill="none" stroke="#FF2B00" stroke-width="9.00" transform="matrix(1.00, 0.00, 0.00, -1.00, 5.0, 539.6)"></path></g></svg>