<?xml version="1.0" encoding="UTF-8" standalone="no"?><svg xmlns="http://www.w3.org/2000/svg" xmlns:xlink="http://www.w3.org/1999/xlink" clip-rule="evenodd" stroke-miterlimit="10" viewBox="0 0 388 53"><desc>SVG generated by Keynote</desc><defs></defs><g transform="matrix(1.00, 0.00, -0.00, -1.00, 0.0, 53.0)"><text xml:space="preserve" font-family="GillSans-SemiBold,Gill Sans" font-weight="bold" font-size="70.0" fill="#525252" transform="matrix(1.00, 0.00, -0.00, -1.00, -0.5, 2.5)">C</text><text xml:space="preserve" font-family="GillSans-SemiBold,Gill Sans" font-weight="bold" font-size="70.0" fill="#525252" transform="matrix(1.00, 0.00, -0.00, -1.00, 50.3, 2.5)">a</text><text xml:space="preserve" font-family="GillSans-SemiBold,Gill Sans" font-weight="bold" font-size="70.0" fill="#525252" transform="matrix(1.00, 0.00, -0.00, -1.00, 84.1, 2.5)">s</text><text xml:space="preserve" font-family="GillSans-SemiBold,Gill Sans" font-weight="bold" font-size="70.0" fill="#525252" transform="matrix(1.00, 0.00, -0.00, -1.00, 112.3, 2.5)">o</text><text xml:space="preserve" font-family="GillSans-SemiBold,Gill Sans" font-weight="bold" font-size="70.0" fill="#525252" transform="matrix(1.00, 0.00, -0.00, -1.00, 152.5, 2.5)"> </text><text xml:space="preserve" font-family="GillSans-SemiBold,Gill Sans" font-weight="bold" font-size="70.0" fill="#525252" transform="matrix(1.00, 0.00, -0.00, -1.00, 171.9, 2.5)">d</text><text xml:space="preserve" font-family="GillSans-SemiBold,Gill Sans" font-weight="bold" font-size="70.0" fill="#525252" transform="matrix(1.00, 0.00, -0.00, -1.00, 210.3, 2.5)">e</text><text xml:space="preserve" font-family="GillSans-SemiBold,Gill Sans" font-weight="bold" font-size="70.0" fill="#525252" transform="matrix(1.00, 0.00, -0.00, -1.00, 246.4, 2.5)"> </text><text xml:space="preserve" font-family="GillSans-SemiBold,Gill Sans" font-weight="bold" font-size="70.0" fill="#525252" transform="matrix(1.00, 0.00, -0.00, -1.00, 265.9, 2.5)">U</text><text xml:space="preserve" font-family="GillSans-SemiBold,Gill Sans" font-weight="bold" font-size="70.0" fill="#525252" transform="matrix(1.00, 0.00, -0.00, -1.00, 319.3, 2.5)">s</text><text xml:space="preserve" font-family="GillSans-SemiBold,Gill Sans" font-weight="bold" font-size="70.0" fill="#525252" transform="matrix(1.00, 0.00, -0.00, -1.00, 347.6, 2.5)">o</text></g></svg>