<?xml version="1.0" encoding="UTF-8" standalone="no"?><svg xmlns="http://www.w3.org/2000/svg" xmlns:xlink="http://www.w3.org/1999/xlink" clip-rule="evenodd" stroke-miterlimit="10" viewBox="0 0 1024 768"><desc>SVG generated by Keynote</desc><defs></defs><g transform="matrix(1.00, 0.00, -0.00, -1.00, 0.0, 768.0)"><g><clipPath id="clip0x6080016badc0"><path d="M 0.0 768.0 L 1024.0 768.0 L 1024.0 0.0 L 0.0 0.0 Z M 0.0 768.0 "></path></clipPath><g clip-path="url(#clip0x6080016badc0)"><image xlink:href="../../F1598181-E8FD-4FD0-8722-D3EA21CEF909/assets/574DCE55A4CF432400CBDDDE1DFDFC9B.jpeg" width="2048.00" height="1536.00" transform="matrix(0.50, 0.00, -0.00, -0.50, 0.0, 768.0)"></image></g></g><image xlink:href="../../9312FB8A-AFFC-4E98-88AF-1A9529855548/assets/D1EB950C8FA9360B4AF8CF5C65DDBC7E.png" width="1024.00" height="768.00" transform="matrix(1.00, 0.00, -0.00, -1.00, 0.0, 768.0)"></image><g><clipPath id="clip0x6080016b59c0"><path d="M 173.0 77.5 L 564.3 77.5 L 564.3 150.0 L 173.0 150.0 Z M 173.0 77.5 "></path></clipPath><g clip-path="url(#clip0x6080016b59c0)"><path d="M 0.0 51.5 L 0.0 15.0 C 0.0 6.7 6.7 0.0 15.0 0.0 L 370.3 0.0 C 378.5 0.0 385.0 6.7 385.0 15.0 L 385.0 51.5 C 385.0 59.8 378.5 67.0 370.3 67.0 L 15.0 67.0 C 6.7 67.0 0.0 59.8 0.0 51.5 Z M 0.0 51.5 " fill="none" stroke="#EA3C43" stroke-width="4.00" transform="matrix(1.00, 0.00, 0.00, -1.00, 176.0, 147.0)"></path></g></g><g><clipPath id="clip0x608001cb5ae0"><path d="M 554.8 95.6 L 629.1 139.7 L 633.8 131.9 L 559.4 87.8 Z M 554.8 95.6 "></path></clipPath><g clip-path="url(#clip0x608001cb5ae0)"><path d="M 0.0 0.0 L 77.4 0.0 " fill="none" stroke="#FF0800" stroke-width="5.00" stroke-linecap="round" stroke-dasharray="0.0, 15.0" transform="matrix(0.86, 0.51, 0.51, -0.86, 561.0, 94.0)"></path></g></g><g><clipPath id="clip0x608001abe120"><path d="M 640.7 95.2 L 1177.7 95.2 L 1177.7 164.8 L 640.7 164.8 Z M 640.7 95.2 "></path></clipPath><g clip-path="url(#clip0x608001abe120)"><text xml:space="preserve" font-family="GillSans-Light,Gill Sans" font-size="24.0" fill="#FF0000" transform="matrix(1.00, 0.00, -0.00, -1.00, 647.5, 135.7)">A</text><text xml:space="preserve" font-family="GillSans-Light,Gill Sans" font-size="24.0" fill="#FF0000" transform="matrix(1.00, 0.00, -0.00, -1.00, 663.5, 135.7)">l</text><text xml:space="preserve" font-family="GillSans-Light,Gill Sans" font-size="24.0" fill="#FF0000" transform="matrix(1.00, 0.00, -0.00, -1.00, 668.1, 135.7)">t</text><text xml:space="preserve" font-family="GillSans-Light,Gill Sans" font-size="24.0" fill="#FF0000" transform="matrix(1.00, 0.00, -0.00, -1.00, 675.3, 135.7)">e</text><text xml:space="preserve" font-family="GillSans-Light,Gill Sans" font-size="24.0" fill="#FF0000" transform="matrix(1.00, 0.00, -0.00, -1.00, 686.8, 135.7)">r</text><text xml:space="preserve" font-family="GillSans-Light,Gill Sans" font-size="24.0" fill="#FF0000" transform="matrix(1.00, 0.00, -0.00, -1.00, 695.4, 135.7)">a</text><text xml:space="preserve" font-family="GillSans-Light,Gill Sans" font-size="24.0" fill="#FF0000" transform="matrix(1.00, 0.00, -0.00, -1.00, 705.6, 135.7)">r</text><text xml:space="preserve" font-family="GillSans-Light,Gill Sans" font-size="24.0" fill="#FF0000" transform="matrix(1.00, 0.00, -0.00, -1.00, 713.6, 135.7)"> </text><text xml:space="preserve" font-family="GillSans-Light,Gill Sans" font-size="24.0" fill="#FF0000" transform="matrix(1.00, 0.00, -0.00, -1.00, 720.3, 135.7)">o</text><text xml:space="preserve" font-family="GillSans-Light,Gill Sans" font-size="24.0" fill="#FF0000" transform="matrix(1.00, 0.00, -0.00, -1.00, 733.3, 135.7)"> </text><text xml:space="preserve" font-family="GillSans-Light,Gill Sans" font-size="24.0" fill="#FF0000" transform="matrix(1.00, 0.00, -0.00, -1.00, 739.9, 135.7)">c</text><text xml:space="preserve" font-family="GillSans-Light,Gill Sans" font-size="24.0" fill="#FF0000" transform="matrix(1.00, 0.00, -0.00, -1.00, 749.9, 135.7)">o</text><text xml:space="preserve" font-family="GillSans-Light,Gill Sans" font-size="24.0" fill="#FF0000" transform="matrix(1.00, 0.00, -0.00, -1.00, 763.0, 135.7)">m</text><text xml:space="preserve" font-family="GillSans-Light,Gill Sans" font-size="24.0" fill="#FF0000" transform="matrix(1.00, 0.00, -0.00, -1.00, 781.5, 135.7)">p</text><text xml:space="preserve" font-family="GillSans-Light,Gill Sans" font-size="24.0" fill="#FF0000" transform="matrix(1.00, 0.00, -0.00, -1.00, 793.7, 135.7)">o</text><text xml:space="preserve" font-family="GillSans-Light,Gill Sans" font-size="24.0" fill="#FF0000" transform="matrix(1.00, 0.00, -0.00, -1.00, 806.7, 135.7)">r</text><text xml:space="preserve" font-family="GillSans-Light,Gill Sans" font-size="24.0" fill="#FF0000" transform="matrix(1.00, 0.00, -0.00, -1.00, 816.6, 135.7)">t</text><text xml:space="preserve" font-family="GillSans-Light,Gill Sans" font-size="24.0" fill="#FF0000" transform="matrix(1.00, 0.00, -0.00, -1.00, 823.8, 135.7)">a</text><text xml:space="preserve" font-family="GillSans-Light,Gill Sans" font-size="24.0" fill="#FF0000" transform="matrix(1.00, 0.00, -0.00, -1.00, 834.1, 135.7)">m</text><text xml:space="preserve" font-family="GillSans-Light,Gill Sans" font-size="24.0" fill="#FF0000" transform="matrix(1.00, 0.00, -0.00, -1.00, 852.6, 135.7)">e</text><text xml:space="preserve" font-family="GillSans-Light,Gill Sans" font-size="24.0" fill="#FF0000" transform="matrix(1.00, 0.00, -0.00, -1.00, 864.1, 135.7)">n</text><text xml:space="preserve" font-family="GillSans-Light,Gill Sans" font-size="24.0" fill="#FF0000" transform="matrix(1.00, 0.00, -0.00, -1.00, 875.9, 135.7)">t</text><text xml:space="preserve" font-family="GillSans-Light,Gill Sans" font-size="24.0" fill="#FF0000" transform="matrix(1.00, 0.00, -0.00, -1.00, 883.1, 135.7)">o</text><text xml:space="preserve" font-family="GillSans-Light,Gill Sans" font-size="24.0" fill="#FF0000" transform="matrix(1.00, 0.00, -0.00, -1.00, 896.1, 135.7)"> </text><text xml:space="preserve" font-family="GillSans-Light,Gill Sans" font-size="24.0" fill="#FF0000" transform="matrix(1.00, 0.00, -0.00, -1.00, 647.5, 107.7)">d</text><text xml:space="preserve" font-family="GillSans-Light,Gill Sans" font-size="24.0" fill="#FF0000" transform="matrix(1.00, 0.00, -0.00, -1.00, 659.8, 107.7)">o</text><text xml:space="preserve" font-family="GillSans-Light,Gill Sans" font-size="24.0" fill="#FF0000" transform="matrix(1.00, 0.00, -0.00, -1.00, 672.8, 107.7)"> </text><text xml:space="preserve" font-family="GillSans-Light,Gill Sans" font-size="24.0" fill="#FF0000" transform="matrix(1.00, 0.00, -0.00, -1.00, 679.4, 107.7)">l</text><text xml:space="preserve" font-family="GillSans-Light,Gill Sans" font-size="24.0" fill="#FF0000" transform="matrix(1.00, 0.00, -0.00, -1.00, 683.9, 107.7)">a</text><text xml:space="preserve" font-family="GillSans-Light,Gill Sans" font-size="24.0" fill="#FF0000" transform="matrix(1.00, 0.00, -0.00, -1.00, 693.8, 107.7)">y</text><text xml:space="preserve" font-family="GillSans-Light,Gill Sans" font-size="24.0" fill="#FF0000" transform="matrix(1.00, 0.00, -0.00, -1.00, 703.3, 107.7)">o</text><text xml:space="preserve" font-family="GillSans-Light,Gill Sans" font-size="24.0" fill="#FF0000" transform="matrix(1.00, 0.00, -0.00, -1.00, 716.4, 107.7)">u</text><text xml:space="preserve" font-family="GillSans-Light,Gill Sans" font-size="24.0" fill="#FF0000" transform="matrix(1.00, 0.00, -0.00, -1.00, 728.1, 107.7)">t</text></g></g></g></svg>