<?xml version="1.0" encoding="UTF-8" standalone="no"?><svg xmlns="http://www.w3.org/2000/svg" xmlns:xlink="http://www.w3.org/1999/xlink" clip-rule="evenodd" stroke-miterlimit="10" viewBox="0 0 1024 768"><desc>SVG generated by Keynote</desc><defs></defs><g transform="matrix(1.00, 0.00, -0.00, -1.00, 0.0, 768.0)"><g><clipPath id="clip0x6080008b1d00"><path d="M 0.0 768.0 L 1024.0 768.0 L 1024.0 0.0 L 0.0 0.0 Z M 0.0 768.0 "></path></clipPath><g clip-path="url(#clip0x6080008b1d00)"><image xlink:href="../../F1598181-E8FD-4FD0-8722-D3EA21CEF909/assets/574DCE55A4CF432400CBDDDE1DFDFC9B.jpeg" width="2048.00" height="1536.00" transform="matrix(0.50, 0.00, -0.00, -0.50, 0.0, 768.0)"></image></g></g><g opacity="0.14"><g><clipPath id="clip0x600001ab46a0"><path d="M 281.0 237.0 L 743.0 237.0 L 743.0 1.0 L 281.0 1.0 Z M 281.3 236.5 "></path></clipPath><g clip-path="url(#clip0x600001ab46a0)"><g><clipPath id="clip0x600001aac3c0"><path d="M 280.0 0.0 L 744.0 0.0 L 744.0 238.0 L 280.0 238.0 Z M 280.0 0.0 "></path></clipPath><g clip-path="url(#clip0x600001aac3c0)"><image xlink:href="../../F1598181-E8FD-4FD0-8722-D3EA21CEF909/assets/8CF606738CD1201E387FE74C5B1F532A.png" width="313.00" height="160.00" transform="matrix(1.48, 0.00, -0.00, -1.47, 281.0, 236.0)"></image></g></g></g></g></g><text xml:space="preserve" font-family="GillSans-Light,Gill Sans" font-size="44.0" fill="#525252" transform="matrix(1.00, 0.00, -0.00, -1.00, 395.5, 432.5)">P</text><text xml:space="preserve" font-family="GillSans-Light,Gill Sans" font-size="44.0" fill="#525252" transform="matrix(1.00, 0.00, -0.00, -1.00, 418.0, 432.5)">r</text><text xml:space="preserve" font-family="GillSans-Light,Gill Sans" font-size="44.0" fill="#525252" transform="matrix(1.00, 0.00, -0.00, -1.00, 432.6, 432.5)">e</text><text xml:space="preserve" font-family="GillSans-Light,Gill Sans" font-size="44.0" fill="#525252" transform="matrix(1.00, 0.00, -0.00, -1.00, 453.7, 432.5)">c</text><text xml:space="preserve" font-family="GillSans-Light,Gill Sans" font-size="44.0" fill="#525252" transform="matrix(1.00, 0.00, -0.00, -1.00, 472.0, 432.5)">i</text><text xml:space="preserve" font-family="GillSans-Light,Gill Sans" font-size="44.0" fill="#525252" transform="matrix(1.00, 0.00, -0.00, -1.00, 480.3, 432.5)">s</text><text xml:space="preserve" font-family="GillSans-Light,Gill Sans" font-size="44.0" fill="#525252" transform="matrix(1.00, 0.00, -0.00, -1.00, 495.9, 432.5)">a</text><text xml:space="preserve" font-family="GillSans-Light,Gill Sans" font-size="44.0" fill="#525252" transform="matrix(1.00, 0.00, -0.00, -1.00, 514.7, 432.5)">m</text><text xml:space="preserve" font-family="GillSans-Light,Gill Sans" font-size="44.0" fill="#525252" transform="matrix(1.00, 0.00, -0.00, -1.00, 548.6, 432.5)">o</text><text xml:space="preserve" font-family="GillSans-Light,Gill Sans" font-size="44.0" fill="#525252" transform="matrix(1.00, 0.00, -0.00, -1.00, 572.4, 432.5)">s</text><text xml:space="preserve" font-family="GillSans-Light,Gill Sans" font-size="44.0" fill="#525252" transform="matrix(1.00, 0.00, -0.00, -1.00, 588.0, 432.5)"> </text><text xml:space="preserve" font-family="GillSans-Light,Gill Sans" font-size="44.0" fill="#525252" transform="matrix(1.00, 0.00, -0.00, -1.00, 600.2, 432.5)">q</text><text xml:space="preserve" font-family="GillSans-Light,Gill Sans" font-size="44.0" fill="#525252" transform="matrix(1.00, 0.00, -0.00, -1.00, 622.6, 432.5)">u</text><text xml:space="preserve" font-family="GillSans-Light,Gill Sans" font-size="44.0" fill="#525252" transform="matrix(1.00, 0.00, -0.00, -1.00, 644.2, 432.5)">e</text><text xml:space="preserve" font-family="GillSans-Light,Gill Sans" font-size="44.0" fill="#525252" transform="matrix(1.00, 0.00, -0.00, -1.00, 665.3, 432.5)"> </text><text xml:space="preserve" font-family="GillSans-Light,Gill Sans" font-size="44.0" fill="#525252" transform="matrix(1.00, 0.00, -0.00, -1.00, 677.5, 432.5)">t</text><text xml:space="preserve" font-family="GillSans-Light,Gill Sans" font-size="44.0" fill="#525252" transform="matrix(1.00, 0.00, -0.00, -1.00, 690.8, 432.5)">o</text><text xml:space="preserve" font-family="GillSans-Light,Gill Sans" font-size="44.0" fill="#525252" transform="matrix(1.00, 0.00, -0.00, -1.00, 714.6, 432.5)">d</text><text xml:space="preserve" font-family="GillSans-Light,Gill Sans" font-size="44.0" fill="#525252" transform="matrix(1.00, 0.00, -0.00, -1.00, 737.0, 432.5)">a</text><text xml:space="preserve" font-family="GillSans-Light,Gill Sans" font-size="44.0" fill="#525252" transform="matrix(1.00, 0.00, -0.00, -1.00, 755.8, 432.5)">s</text><text xml:space="preserve" font-family="GillSans-Light,Gill Sans" font-size="44.0" fill="#525252" transform="matrix(1.00, 0.00, -0.00, -1.00, 771.4, 432.5)"> </text><text xml:space="preserve" font-family="GillSans-Light,Gill Sans" font-size="44.0" fill="#525252" transform="matrix(1.00, 0.00, -0.00, -1.00, 783.6, 432.5)">s</text><text xml:space="preserve" font-family="GillSans-Light,Gill Sans" font-size="44.0" fill="#525252" transform="matrix(1.00, 0.00, -0.00, -1.00, 799.2, 432.5)">i</text><text xml:space="preserve" font-family="GillSans-Light,Gill Sans" font-size="44.0" fill="#525252" transform="matrix(1.00, 0.00, -0.00, -1.00, 807.5, 432.5)">g</text><text xml:space="preserve" font-family="GillSans-Light,Gill Sans" font-size="44.0" fill="#525252" transform="matrix(1.00, 0.00, -0.00, -1.00, 826.2, 432.5)">a</text><text xml:space="preserve" font-family="GillSans-Light,Gill Sans" font-size="44.0" fill="#525252" transform="matrix(1.00, 0.00, -0.00, -1.00, 845.0, 432.5)">m</text><text xml:space="preserve" font-family="GillSans-Light,Gill Sans" font-size="44.0" fill="#525252" transform="matrix(1.00, 0.00, -0.00, -1.00, 878.9, 432.5)"> </text><text xml:space="preserve" font-family="GillSans-Light,Gill Sans" font-size="44.0" fill="#525252" transform="matrix(1.00, 0.00, -0.00, -1.00, 891.1, 432.5)">a</text><text xml:space="preserve" font-family="GillSans-Light,Gill Sans" font-size="44.0" fill="#525252" transform="matrix(1.00, 0.00, -0.00, -1.00, 909.9, 432.5)">s</text><text xml:space="preserve" font-family="GillSans-Light,Gill Sans" font-size="44.0" fill="#525252" transform="matrix(1.00, 0.00, -0.00, -1.00, 925.5, 432.5)"> </text><text xml:space="preserve" font-family="GillSans-Light,Gill Sans" font-size="44.0" fill="#525252" transform="matrix(1.00, 0.00, -0.00, -1.00, 287.7, 382.5)">m</text><text xml:space="preserve" font-family="GillSans-Light,Gill Sans" font-size="44.0" fill="#525252" transform="matrix(1.00, 0.00, -0.00, -1.00, 321.6, 382.5)">e</text><text xml:space="preserve" font-family="GillSans-Light,Gill Sans" font-size="44.0" fill="#525252" transform="matrix(1.00, 0.00, -0.00, -1.00, 342.7, 382.5)">s</text><text xml:space="preserve" font-family="GillSans-Light,Gill Sans" font-size="44.0" fill="#525252" transform="matrix(1.00, 0.00, -0.00, -1.00, 358.3, 382.5)">m</text><text xml:space="preserve" font-family="GillSans-Light,Gill Sans" font-size="44.0" fill="#525252" transform="matrix(1.00, 0.00, -0.00, -1.00, 392.2, 382.5)">a</text><text xml:space="preserve" font-family="GillSans-Light,Gill Sans" font-size="44.0" fill="#525252" transform="matrix(1.00, 0.00, -0.00, -1.00, 411.0, 382.5)">s</text><text xml:space="preserve" font-family="GillSans-Light,Gill Sans" font-size="44.0" fill="#525252" transform="matrix(1.00, 0.00, -0.00, -1.00, 426.5, 382.5)"> </text><text xml:space="preserve" font-family="GillSans-Light,Gill Sans" font-size="44.0" fill="#525252" transform="matrix(1.00, 0.00, -0.00, -1.00, 438.7, 382.5)">e</text><text xml:space="preserve" font-family="GillSans-Light,Gill Sans" font-size="44.0" fill="#525252" transform="matrix(1.00, 0.00, -0.00, -1.00, 459.8, 382.5)">s</text><text xml:space="preserve" font-family="GillSans-Light,Gill Sans" font-size="44.0" fill="#525252" transform="matrix(1.00, 0.00, -0.00, -1.00, 475.4, 382.5)">t</text><text xml:space="preserve" font-family="GillSans-Light,Gill Sans" font-size="44.0" fill="#525252" transform="matrix(1.00, 0.00, -0.00, -1.00, 488.7, 382.5)">r</text><text xml:space="preserve" font-family="GillSans-Light,Gill Sans" font-size="44.0" fill="#525252" transform="matrix(1.00, 0.00, -0.00, -1.00, 505.1, 382.5)">u</text><text xml:space="preserve" font-family="GillSans-Light,Gill Sans" font-size="44.0" fill="#525252" transform="matrix(1.00, 0.00, -0.00, -1.00, 526.7, 382.5)">t</text><text xml:space="preserve" font-family="GillSans-Light,Gill Sans" font-size="44.0" fill="#525252" transform="matrix(1.00, 0.00, -0.00, -1.00, 539.9, 382.5)">u</text><text xml:space="preserve" font-family="GillSans-Light,Gill Sans" font-size="44.0" fill="#525252" transform="matrix(1.00, 0.00, -0.00, -1.00, 561.5, 382.5)">r</text><text xml:space="preserve" font-family="GillSans-Light,Gill Sans" font-size="44.0" fill="#525252" transform="matrix(1.00, 0.00, -0.00, -1.00, 577.3, 382.5)">a</text><text xml:space="preserve" font-family="GillSans-Light,Gill Sans" font-size="44.0" fill="#525252" transform="matrix(1.00, 0.00, -0.00, -1.00, 596.0, 382.5)">s</text><text xml:space="preserve" font-family="GillSans-Light,Gill Sans" font-size="44.0" fill="#525252" transform="matrix(1.00, 0.00, -0.00, -1.00, 611.6, 382.5)">,</text><text xml:space="preserve" font-family="GillSans-Light,Gill Sans" font-size="44.0" fill="#525252" transform="matrix(1.00, 0.00, -0.00, -1.00, 615.8, 382.5)"> </text><text xml:space="preserve" font-family="GillSans-Light,Gill Sans" font-size="44.0" fill="#525252" transform="matrix(1.00, 0.00, -0.00, -1.00, 628.1, 382.5)">e</text><text xml:space="preserve" font-family="GillSans-Light,Gill Sans" font-size="44.0" fill="#525252" transform="matrix(1.00, 0.00, -0.00, -1.00, 649.1, 382.5)"> </text><text xml:space="preserve" font-family="GillSans-Light,Gill Sans" font-size="44.0" fill="#525252" transform="matrix(1.00, 0.00, -0.00, -1.00, 661.4, 382.5)">s</text><text xml:space="preserve" font-family="GillSans-Light,Gill Sans" font-size="44.0" fill="#525252" transform="matrix(1.00, 0.00, -0.00, -1.00, 676.9, 382.5)">รณ</text><text xml:space="preserve" font-family="GillSans-Light,Gill Sans" font-size="44.0" fill="#525252" transform="matrix(1.00, 0.00, -0.00, -1.00, 700.8, 382.5)"> </text><text xml:space="preserve" font-family="GillSans-Light,Gill Sans" font-size="44.0" fill="#525252" transform="matrix(1.00, 0.00, -0.00, -1.00, 713.0, 382.5)">a</text><text xml:space="preserve" font-family="GillSans-Light,Gill Sans" font-size="44.0" fill="#525252" transform="matrix(1.00, 0.00, -0.00, -1.00, 731.8, 382.5)">l</text><text xml:space="preserve" font-family="GillSans-Light,Gill Sans" font-size="44.0" fill="#525252" transform="matrix(1.00, 0.00, -0.00, -1.00, 740.0, 382.5)">t</text><text xml:space="preserve" font-family="GillSans-Light,Gill Sans" font-size="44.0" fill="#525252" transform="matrix(1.00, 0.00, -0.00, -1.00, 753.3, 382.5)">e</text><text xml:space="preserve" font-family="GillSans-Light,Gill Sans" font-size="44.0" fill="#525252" transform="matrix(1.00, 0.00, -0.00, -1.00, 774.4, 382.5)">r</text><text xml:space="preserve" font-family="GillSans-Light,Gill Sans" font-size="44.0" fill="#525252" transform="matrix(1.00, 0.00, -0.00, -1.00, 789.0, 382.5)">e</text><text xml:space="preserve" font-family="GillSans-Light,Gill Sans" font-size="44.0" fill="#525252" transform="matrix(1.00, 0.00, -0.00, -1.00, 810.1, 382.5)"> </text><text xml:space="preserve" font-family="GillSans-Light,Gill Sans" font-size="44.0" fill="#525252" transform="matrix(1.00, 0.00, -0.00, -1.00, 822.3, 382.5)">a</text><text xml:space="preserve" font-family="GillSans-Light,Gill Sans" font-size="44.0" fill="#525252" transform="matrix(1.00, 0.00, -0.00, -1.00, 841.1, 382.5)">q</text><text xml:space="preserve" font-family="GillSans-Light,Gill Sans" font-size="44.0" fill="#525252" transform="matrix(1.00, 0.00, -0.00, -1.00, 863.5, 382.5)">u</text><text xml:space="preserve" font-family="GillSans-Light,Gill Sans" font-size="44.0" fill="#525252" transform="matrix(1.00, 0.00, -0.00, -1.00, 885.1, 382.5)">i</text><text xml:space="preserve" font-family="GillSans-Light,Gill Sans" font-size="44.0" fill="#525252" transform="matrix(1.00, 0.00, -0.00, -1.00, 893.4, 382.5)">l</text><text xml:space="preserve" font-family="GillSans-Light,Gill Sans" font-size="44.0" fill="#525252" transform="matrix(1.00, 0.00, -0.00, -1.00, 901.6, 382.5)">o</text><text xml:space="preserve" font-family="GillSans-Light,Gill Sans" font-size="44.0" fill="#525252" transform="matrix(1.00, 0.00, -0.00, -1.00, 925.5, 382.5)"> </text><text xml:space="preserve" font-family="GillSans-Light,Gill Sans" font-size="44.0" fill="#525252" transform="matrix(1.00, 0.00, -0.00, -1.00, 559.8, 332.5)">r</text><text xml:space="preserve" font-family="GillSans-Light,Gill Sans" font-size="44.0" fill="#525252" transform="matrix(1.00, 0.00, -0.00, -1.00, 574.4, 332.5)">e</text><text xml:space="preserve" font-family="GillSans-Light,Gill Sans" font-size="44.0" fill="#525252" transform="matrix(1.00, 0.00, -0.00, -1.00, 595.5, 332.5)">a</text><text xml:space="preserve" font-family="GillSans-Light,Gill Sans" font-size="44.0" fill="#525252" transform="matrix(1.00, 0.00, -0.00, -1.00, 614.3, 332.5)">l</text><text xml:space="preserve" font-family="GillSans-Light,Gill Sans" font-size="44.0" fill="#525252" transform="matrix(1.00, 0.00, -0.00, -1.00, 622.6, 332.5)">m</text><text xml:space="preserve" font-family="GillSans-Light,Gill Sans" font-size="44.0" fill="#525252" transform="matrix(1.00, 0.00, -0.00, -1.00, 656.5, 332.5)">e</text><text xml:space="preserve" font-family="GillSans-Light,Gill Sans" font-size="44.0" fill="#525252" transform="matrix(1.00, 0.00, -0.00, -1.00, 677.6, 332.5)">n</text><text xml:space="preserve" font-family="GillSans-Light,Gill Sans" font-size="44.0" fill="#525252" transform="matrix(1.00, 0.00, -0.00, -1.00, 699.1, 332.5)">t</text><text xml:space="preserve" font-family="GillSans-Light,Gill Sans" font-size="44.0" fill="#525252" transform="matrix(1.00, 0.00, -0.00, -1.00, 712.4, 332.5)">e</text><text xml:space="preserve" font-family="GillSans-Light,Gill Sans" font-size="44.0" fill="#525252" transform="matrix(1.00, 0.00, -0.00, -1.00, 733.5, 332.5)"> </text><text xml:space="preserve" font-family="GillSans-Light,Gill Sans" font-size="44.0" fill="#525252" transform="matrix(1.00, 0.00, -0.00, -1.00, 745.7, 332.5)">n</text><text xml:space="preserve" font-family="GillSans-Light,Gill Sans" font-size="44.0" fill="#525252" transform="matrix(1.00, 0.00, -0.00, -1.00, 767.3, 332.5)">e</text><text xml:space="preserve" font-family="GillSans-Light,Gill Sans" font-size="44.0" fill="#525252" transform="matrix(1.00, 0.00, -0.00, -1.00, 788.3, 332.5)">c</text><text xml:space="preserve" font-family="GillSans-Light,Gill Sans" font-size="44.0" fill="#525252" transform="matrix(1.00, 0.00, -0.00, -1.00, 806.7, 332.5)">e</text><text xml:space="preserve" font-family="GillSans-Light,Gill Sans" font-size="44.0" fill="#525252" transform="matrix(1.00, 0.00, -0.00, -1.00, 827.8, 332.5)">s</text><text xml:space="preserve" font-family="GillSans-Light,Gill Sans" font-size="44.0" fill="#525252" transform="matrix(1.00, 0.00, -0.00, -1.00, 843.3, 332.5)">s</text><text xml:space="preserve" font-family="GillSans-Light,Gill Sans" font-size="44.0" fill="#525252" transform="matrix(1.00, 0.00, -0.00, -1.00, 858.9, 332.5)">รก</text><text xml:space="preserve" font-family="GillSans-Light,Gill Sans" font-size="44.0" fill="#525252" transform="matrix(1.00, 0.00, -0.00, -1.00, 877.7, 332.5)">r</text><text xml:space="preserve" font-family="GillSans-Light,Gill Sans" font-size="44.0" fill="#525252" transform="matrix(1.00, 0.00, -0.00, -1.00, 893.4, 332.5)">i</text><text xml:space="preserve" font-family="GillSans-Light,Gill Sans" font-size="44.0" fill="#525252" transform="matrix(1.00, 0.00, -0.00, -1.00, 901.7, 332.5)">o</text><path d="M 0.2 0.0 L 184.2 0.0 " fill="none" stroke="#595E5D" stroke-width="2.00" transform="matrix(0.00, 1.00, 1.00, 0.00, 958.0, 293.8)"></path><path d="M 107.0 768.0 L 167.0 768.0 L 167.0 419.0 L 107.0 419.0 Z M 106.6 768.2 " fill="#7F8685"></path><path d="M 192.0 362.0 L 192.0 342.0 L 255.0 392.0 L 192.0 442.0 L 192.0 422.0 L 107.0 422.0 L 107.0 362.0 Z M 192.0 361.8 " fill="#7F8685"></path><path d="M 899.0 252.0 L 959.0 252.0 L 959.0 -1.0 L 899.0 -1.0 Z M 898.6 251.5 " fill="#7F8685"></path></g></svg>