<?xml version="1.0" encoding="UTF-8" standalone="no"?><svg xmlns="http://www.w3.org/2000/svg" xmlns:xlink="http://www.w3.org/1999/xlink" clip-rule="evenodd" stroke-miterlimit="10" viewBox="0 0 1024 768"><desc>SVG generated by Keynote</desc><defs></defs><g transform="matrix(1.00, 0.00, -0.00, -1.00, 0.0, 768.0)"><g><clipPath id="clip0x6000018bea80"><path d="M 0.0 768.0 L 1024.0 768.0 L 1024.0 0.0 L 0.0 0.0 Z M 0.0 768.0 "></path></clipPath><g clip-path="url(#clip0x6000018bea80)"><image xlink:href="../../F1598181-E8FD-4FD0-8722-D3EA21CEF909/assets/574DCE55A4CF432400CBDDDE1DFDFC9B.jpeg" width="2048.00" height="1536.00" transform="matrix(0.50, 0.00, -0.00, -0.50, 0.0, 768.0)"></image></g></g><g opacity="0.14"><g><clipPath id="clip0x600001aa21c0"><path d="M 281.0 237.0 L 743.0 237.0 L 743.0 1.0 L 281.0 1.0 Z M 281.3 236.5 "></path></clipPath><g clip-path="url(#clip0x600001aa21c0)"><g><clipPath id="clip0x6000014b51e0"><path d="M 280.0 0.0 L 744.0 0.0 L 744.0 238.0 L 280.0 238.0 Z M 280.0 0.0 "></path></clipPath><g clip-path="url(#clip0x6000014b51e0)"><image xlink:href="../../F1598181-E8FD-4FD0-8722-D3EA21CEF909/assets/8CF606738CD1201E387FE74C5B1F532A.png" width="313.00" height="160.00" transform="matrix(1.48, 0.00, -0.00, -1.47, 281.0, 236.0)"></image></g></g></g></g></g><text xml:space="preserve" font-family="GillSans-SemiBold,Gill Sans" font-weight="bold" font-size="70.0" fill="#525252" transform="matrix(1.00, 0.00, -0.00, -1.00, 191.4, 637.1)">S</text><text xml:space="preserve" font-family="GillSans-SemiBold,Gill Sans" font-weight="bold" font-size="70.0" fill="#525252" transform="matrix(1.00, 0.00, -0.00, -1.00, 228.8, 637.1)">o</text><text xml:space="preserve" font-family="GillSans-SemiBold,Gill Sans" font-weight="bold" font-size="70.0" fill="#525252" transform="matrix(1.00, 0.00, -0.00, -1.00, 268.9, 637.1)">l</text><text xml:space="preserve" font-family="GillSans-SemiBold,Gill Sans" font-weight="bold" font-size="70.0" fill="#525252" transform="matrix(1.00, 0.00, -0.00, -1.00, 286.3, 637.1)">u</text><text xml:space="preserve" font-family="GillSans-SemiBold,Gill Sans" font-weight="bold" font-size="70.0" fill="#525252" transform="matrix(1.00, 0.00, -0.00, -1.00, 324.1, 637.1)">ç</text><text xml:space="preserve" font-family="GillSans-SemiBold,Gill Sans" font-weight="bold" font-size="70.0" fill="#525252" transform="matrix(1.00, 0.00, -0.00, -1.00, 356.3, 637.1)">ã</text><text xml:space="preserve" font-family="GillSans-SemiBold,Gill Sans" font-weight="bold" font-size="70.0" fill="#525252" transform="matrix(1.00, 0.00, -0.00, -1.00, 390.1, 637.1)">o</text><path d="M 81.0 631.0 L 81.0 611.6 L 144.1 661.6 L 81.0 711.6 L 81.0 692.0 L 0.0 692.0 L 0.0 631.0 Z M 81.1 631.4 " fill="#7F8685"></path><text xml:space="preserve" font-family="GillSans-SemiBold,Gill Sans" font-weight="bold" font-size="70.0" fill="#525252" transform="matrix(1.00, 0.00, -0.00, -1.00, 382.6, 459.5)">T</text><text xml:space="preserve" font-family="GillSans-SemiBold,Gill Sans" font-weight="bold" font-size="70.0" fill="#525252" transform="matrix(1.00, 0.00, -0.00, -1.00, 421.5, 459.5)">e</text><text xml:space="preserve" font-family="GillSans-SemiBold,Gill Sans" font-weight="bold" font-size="70.0" fill="#525252" transform="matrix(1.00, 0.00, -0.00, -1.00, 457.7, 459.5)">m</text><text xml:space="preserve" font-family="GillSans-SemiBold,Gill Sans" font-weight="bold" font-size="70.0" fill="#525252" transform="matrix(1.00, 0.00, -0.00, -1.00, 516.9, 459.5)">p</text><text xml:space="preserve" font-family="GillSans-SemiBold,Gill Sans" font-weight="bold" font-size="70.0" fill="#525252" transform="matrix(1.00, 0.00, -0.00, -1.00, 555.3, 459.5)">l</text><text xml:space="preserve" font-family="GillSans-SemiBold,Gill Sans" font-weight="bold" font-size="70.0" fill="#525252" transform="matrix(1.00, 0.00, -0.00, -1.00, 572.6, 459.5)">a</text><text xml:space="preserve" font-family="GillSans-SemiBold,Gill Sans" font-weight="bold" font-size="70.0" fill="#525252" transform="matrix(1.00, 0.00, -0.00, -1.00, 606.4, 459.5)">t</text><text xml:space="preserve" font-family="GillSans-SemiBold,Gill Sans" font-weight="bold" font-size="70.0" fill="#525252" transform="matrix(1.00, 0.00, -0.00, -1.00, 632.3, 459.5)">e</text><text xml:space="preserve" font-family="GillSans-SemiBold,Gill Sans" font-weight="bold" font-size="70.0" fill="#525252" transform="matrix(1.00, 0.00, -0.00, -1.00, 668.4, 459.5)"> </text><text xml:space="preserve" font-family="GillSans-SemiBold,Gill Sans" font-weight="bold" font-size="70.0" fill="#525252" transform="matrix(1.00, 0.00, -0.00, -1.00, 687.8, 459.5)">M</text><text xml:space="preserve" font-family="GillSans-SemiBold,Gill Sans" font-weight="bold" font-size="70.0" fill="#525252" transform="matrix(1.00, 0.00, -0.00, -1.00, 746.3, 459.5)">e</text><text xml:space="preserve" font-family="GillSans-SemiBold,Gill Sans" font-weight="bold" font-size="70.0" fill="#525252" transform="matrix(1.00, 0.00, -0.00, -1.00, 782.4, 459.5)">t</text><text xml:space="preserve" font-family="GillSans-SemiBold,Gill Sans" font-weight="bold" font-size="70.0" fill="#525252" transform="matrix(1.00, 0.00, -0.00, -1.00, 808.3, 459.5)">h</text><text xml:space="preserve" font-family="GillSans-SemiBold,Gill Sans" font-weight="bold" font-size="70.0" fill="#525252" transform="matrix(1.00, 0.00, -0.00, -1.00, 846.1, 459.5)">o</text><text xml:space="preserve" font-family="GillSans-SemiBold,Gill Sans" font-weight="bold" font-size="70.0" fill="#525252" transform="matrix(1.00, 0.00, -0.00, -1.00, 886.3, 459.5)">d</text><path d="M -0.3 0.0 L 245.7 0.0 " fill="none" stroke="#595E5D" stroke-width="2.00" transform="matrix(0.00, 1.00, 1.00, 0.00, 958.0, 275.3)"></path><text xml:space="preserve" font-family="GillSans-Light,Gill Sans" font-size="27.0" fill="#000000" transform="matrix(1.00, 0.00, -0.00, -1.00, 147.6, 395.7)">D</text><text xml:space="preserve" font-family="GillSans-Light,Gill Sans" font-size="27.0" fill="#000000" transform="matrix(1.00, 0.00, -0.00, -1.00, 167.6, 395.7)">e</text><text xml:space="preserve" font-family="GillSans-Light,Gill Sans" font-size="27.0" fill="#000000" transform="matrix(1.00, 0.00, -0.00, -1.00, 180.5, 395.7)">ﬁ</text><text xml:space="preserve" font-family="GillSans-Light,Gill Sans" font-size="27.0" fill="#000000" transform="matrix(1.00, 0.00, -0.00, -1.00, 193.4, 395.7)">n</text><text xml:space="preserve" font-family="GillSans-Light,Gill Sans" font-size="27.0" fill="#000000" transform="matrix(1.00, 0.00, -0.00, -1.00, 206.7, 395.7)">e</text><text xml:space="preserve" font-family="GillSans-Light,Gill Sans" font-size="27.0" fill="#000000" transform="matrix(1.00, 0.00, -0.00, -1.00, 219.6, 395.7)"> </text><text xml:space="preserve" font-family="GillSans-Light,Gill Sans" font-size="27.0" fill="#000000" transform="matrix(1.00, 0.00, -0.00, -1.00, 227.1, 395.7)">o</text><text xml:space="preserve" font-family="GillSans-Light,Gill Sans" font-size="27.0" fill="#000000" transform="matrix(1.00, 0.00, -0.00, -1.00, 241.8, 395.7)"> </text><text xml:space="preserve" font-family="GillSans-Light,Gill Sans" font-size="27.0" fill="#000000" transform="matrix(1.00, 0.00, -0.00, -1.00, 249.2, 395.7)">e</text><text xml:space="preserve" font-family="GillSans-Light,Gill Sans" font-size="27.0" fill="#000000" transform="matrix(1.00, 0.00, -0.00, -1.00, 262.2, 395.7)">s</text><text xml:space="preserve" font-family="GillSans-Light,Gill Sans" font-size="27.0" fill="#000000" transform="matrix(1.00, 0.00, -0.00, -1.00, 271.7, 395.7)">q</text><text xml:space="preserve" font-family="GillSans-Light,Gill Sans" font-size="27.0" fill="#000000" transform="matrix(1.00, 0.00, -0.00, -1.00, 285.5, 395.7)">u</text><text xml:space="preserve" font-family="GillSans-Light,Gill Sans" font-size="27.0" fill="#000000" transform="matrix(1.00, 0.00, -0.00, -1.00, 298.7, 395.7)">e</text><text xml:space="preserve" font-family="GillSans-Light,Gill Sans" font-size="27.0" fill="#000000" transform="matrix(1.00, 0.00, -0.00, -1.00, 311.7, 395.7)">l</text><text xml:space="preserve" font-family="GillSans-Light,Gill Sans" font-size="27.0" fill="#000000" transform="matrix(1.00, 0.00, -0.00, -1.00, 316.7, 395.7)">e</text><text xml:space="preserve" font-family="GillSans-Light,Gill Sans" font-size="27.0" fill="#000000" transform="matrix(1.00, 0.00, -0.00, -1.00, 329.7, 395.7)">t</text><text xml:space="preserve" font-family="GillSans-Light,Gill Sans" font-size="27.0" fill="#000000" transform="matrix(1.00, 0.00, -0.00, -1.00, 337.8, 395.7)">o</text><text xml:space="preserve" font-family="GillSans-Light,Gill Sans" font-size="27.0" fill="#000000" transform="matrix(1.00, 0.00, -0.00, -1.00, 352.5, 395.7)"> </text><text xml:space="preserve" font-family="GillSans-Light,Gill Sans" font-size="27.0" fill="#000000" transform="matrix(1.00, 0.00, -0.00, -1.00, 360.0, 395.7)">d</text><text xml:space="preserve" font-family="GillSans-Light,Gill Sans" font-size="27.0" fill="#000000" transform="matrix(1.00, 0.00, -0.00, -1.00, 373.7, 395.7)">e</text><text xml:space="preserve" font-family="GillSans-Light,Gill Sans" font-size="27.0" fill="#000000" transform="matrix(1.00, 0.00, -0.00, -1.00, 386.6, 395.7)"> </text><text xml:space="preserve" font-family="GillSans-Light,Gill Sans" font-size="27.0" fill="#000000" transform="matrix(1.00, 0.00, -0.00, -1.00, 394.1, 395.7)">u</text><text xml:space="preserve" font-family="GillSans-Light,Gill Sans" font-size="27.0" fill="#000000" transform="matrix(1.00, 0.00, -0.00, -1.00, 407.4, 395.7)">m</text><text xml:space="preserve" font-family="GillSans-Light,Gill Sans" font-size="27.0" fill="#000000" transform="matrix(1.00, 0.00, -0.00, -1.00, 428.2, 395.7)"> </text><text xml:space="preserve" font-family="GillSans-Light,Gill Sans" font-size="27.0" fill="#000000" transform="matrix(1.00, 0.00, -0.00, -1.00, 435.7, 395.7)">a</text><text xml:space="preserve" font-family="GillSans-Light,Gill Sans" font-size="27.0" fill="#000000" transform="matrix(1.00, 0.00, -0.00, -1.00, 447.2, 395.7)">l</text><text xml:space="preserve" font-family="GillSans-Light,Gill Sans" font-size="27.0" fill="#000000" transform="matrix(1.00, 0.00, -0.00, -1.00, 452.3, 395.7)">g</text><text xml:space="preserve" font-family="GillSans-Light,Gill Sans" font-size="27.0" fill="#000000" transform="matrix(1.00, 0.00, -0.00, -1.00, 463.8, 395.7)">o</text><text xml:space="preserve" font-family="GillSans-Light,Gill Sans" font-size="27.0" fill="#000000" transform="matrix(1.00, 0.00, -0.00, -1.00, 478.4, 395.7)">r</text><text xml:space="preserve" font-family="GillSans-Light,Gill Sans" font-size="27.0" fill="#000000" transform="matrix(1.00, 0.00, -0.00, -1.00, 488.1, 395.7)">i</text><text xml:space="preserve" font-family="GillSans-Light,Gill Sans" font-size="27.0" fill="#000000" transform="matrix(1.00, 0.00, -0.00, -1.00, 493.2, 395.7)">t</text><text xml:space="preserve" font-family="GillSans-Light,Gill Sans" font-size="27.0" fill="#000000" transform="matrix(1.00, 0.00, -0.00, -1.00, 501.3, 395.7)">m</text><text xml:space="preserve" font-family="GillSans-Light,Gill Sans" font-size="27.0" fill="#000000" transform="matrix(1.00, 0.00, -0.00, -1.00, 522.1, 395.7)">o</text><text xml:space="preserve" font-family="GillSans-Light,Gill Sans" font-size="27.0" fill="#000000" transform="matrix(1.00, 0.00, -0.00, -1.00, 536.8, 395.7)"> </text><text xml:space="preserve" font-family="GillSans-Light,Gill Sans" font-size="27.0" fill="#000000" transform="matrix(1.00, 0.00, -0.00, -1.00, 544.3, 395.7)">d</text><text xml:space="preserve" font-family="GillSans-Light,Gill Sans" font-size="27.0" fill="#000000" transform="matrix(1.00, 0.00, -0.00, -1.00, 558.0, 395.7)">e</text><text xml:space="preserve" font-family="GillSans-Light,Gill Sans" font-size="27.0" fill="#000000" transform="matrix(1.00, 0.00, -0.00, -1.00, 571.0, 395.7)">n</text><text xml:space="preserve" font-family="GillSans-Light,Gill Sans" font-size="27.0" fill="#000000" transform="matrix(1.00, 0.00, -0.00, -1.00, 584.2, 395.7)">t</text><text xml:space="preserve" font-family="GillSans-Light,Gill Sans" font-size="27.0" fill="#000000" transform="matrix(1.00, 0.00, -0.00, -1.00, 592.3, 395.7)">r</text><text xml:space="preserve" font-family="GillSans-Light,Gill Sans" font-size="27.0" fill="#000000" transform="matrix(1.00, 0.00, -0.00, -1.00, 601.3, 395.7)">o</text><text xml:space="preserve" font-family="GillSans-Light,Gill Sans" font-size="27.0" fill="#000000" transform="matrix(1.00, 0.00, -0.00, -1.00, 616.0, 395.7)"> </text><text xml:space="preserve" font-family="GillSans-Light,Gill Sans" font-size="27.0" fill="#000000" transform="matrix(1.00, 0.00, -0.00, -1.00, 623.5, 395.7)">d</text><text xml:space="preserve" font-family="GillSans-Light,Gill Sans" font-size="27.0" fill="#000000" transform="matrix(1.00, 0.00, -0.00, -1.00, 637.2, 395.7)">e</text><text xml:space="preserve" font-family="GillSans-Light,Gill Sans" font-size="27.0" fill="#000000" transform="matrix(1.00, 0.00, -0.00, -1.00, 650.2, 395.7)"> </text><text xml:space="preserve" font-family="GillSans-Light,Gill Sans" font-size="27.0" fill="#000000" transform="matrix(1.00, 0.00, -0.00, -1.00, 657.7, 395.7)">u</text><text xml:space="preserve" font-family="GillSans-Light,Gill Sans" font-size="27.0" fill="#000000" transform="matrix(1.00, 0.00, -0.00, -1.00, 670.9, 395.7)">m</text><text xml:space="preserve" font-family="GillSans-Light,Gill Sans" font-size="27.0" fill="#000000" transform="matrix(1.00, 0.00, -0.00, -1.00, 691.7, 395.7)"> </text><text xml:space="preserve" font-family="GillSans-Light,Gill Sans" font-size="27.0" fill="#000000" transform="matrix(1.00, 0.00, -0.00, -1.00, 699.2, 395.7)">m</text><text xml:space="preserve" font-family="GillSans-Light,Gill Sans" font-size="27.0" fill="#000000" transform="matrix(1.00, 0.00, -0.00, -1.00, 720.0, 395.7)">é</text><text xml:space="preserve" font-family="GillSans-Light,Gill Sans" font-size="27.0" fill="#000000" transform="matrix(1.00, 0.00, -0.00, -1.00, 733.0, 395.7)">t</text><text xml:space="preserve" font-family="GillSans-Light,Gill Sans" font-size="27.0" fill="#000000" transform="matrix(1.00, 0.00, -0.00, -1.00, 741.1, 395.7)">o</text><text xml:space="preserve" font-family="GillSans-Light,Gill Sans" font-size="27.0" fill="#000000" transform="matrix(1.00, 0.00, -0.00, -1.00, 755.7, 395.7)">d</text><text xml:space="preserve" font-family="GillSans-Light,Gill Sans" font-size="27.0" fill="#000000" transform="matrix(1.00, 0.00, -0.00, -1.00, 769.5, 395.7)">o</text><text xml:space="preserve" font-family="GillSans-Light,Gill Sans" font-size="27.0" fill="#000000" transform="matrix(1.00, 0.00, -0.00, -1.00, 783.6, 395.7)">,</text><text xml:space="preserve" font-family="GillSans-Light,Gill Sans" font-size="27.0" fill="#000000" transform="matrix(1.00, 0.00, -0.00, -1.00, 786.2, 395.7)"> </text><text xml:space="preserve" font-family="GillSans-Light,Gill Sans" font-size="27.0" fill="#000000" transform="matrix(1.00, 0.00, -0.00, -1.00, 793.7, 395.7)">t</text><text xml:space="preserve" font-family="GillSans-Light,Gill Sans" font-size="27.0" fill="#000000" transform="matrix(1.00, 0.00, -0.00, -1.00, 801.8, 395.7)">r</text><text xml:space="preserve" font-family="GillSans-Light,Gill Sans" font-size="27.0" fill="#000000" transform="matrix(1.00, 0.00, -0.00, -1.00, 811.5, 395.7)">a</text><text xml:space="preserve" font-family="GillSans-Light,Gill Sans" font-size="27.0" fill="#000000" transform="matrix(1.00, 0.00, -0.00, -1.00, 823.0, 395.7)">n</text><text xml:space="preserve" font-family="GillSans-Light,Gill Sans" font-size="27.0" fill="#000000" transform="matrix(1.00, 0.00, -0.00, -1.00, 836.2, 395.7)">s</text><text xml:space="preserve" font-family="GillSans-Light,Gill Sans" font-size="27.0" fill="#000000" transform="matrix(1.00, 0.00, -0.00, -1.00, 845.8, 395.7)">f</text><text xml:space="preserve" font-family="GillSans-Light,Gill Sans" font-size="27.0" fill="#000000" transform="matrix(1.00, 0.00, -0.00, -1.00, 851.9, 395.7)">e</text><text xml:space="preserve" font-family="GillSans-Light,Gill Sans" font-size="27.0" fill="#000000" transform="matrix(1.00, 0.00, -0.00, -1.00, 864.8, 395.7)">r</text><text xml:space="preserve" font-family="GillSans-Light,Gill Sans" font-size="27.0" fill="#000000" transform="matrix(1.00, 0.00, -0.00, -1.00, 874.5, 395.7)">i</text><text xml:space="preserve" font-family="GillSans-Light,Gill Sans" font-size="27.0" fill="#000000" transform="matrix(1.00, 0.00, -0.00, -1.00, 879.6, 395.7)">n</text><text xml:space="preserve" font-family="GillSans-Light,Gill Sans" font-size="27.0" fill="#000000" transform="matrix(1.00, 0.00, -0.00, -1.00, 892.8, 395.7)">d</text><text xml:space="preserve" font-family="GillSans-Light,Gill Sans" font-size="27.0" fill="#000000" transform="matrix(1.00, 0.00, -0.00, -1.00, 906.6, 395.7)">o</text><text xml:space="preserve" font-family="GillSans-Light,Gill Sans" font-size="27.0" fill="#000000" transform="matrix(1.00, 0.00, -0.00, -1.00, 921.2, 395.7)"> </text><text xml:space="preserve" font-family="GillSans-Light,Gill Sans" font-size="27.0" fill="#000000" transform="matrix(1.00, 0.00, -0.00, -1.00, 135.2, 365.7)">a</text><text xml:space="preserve" font-family="GillSans-Light,Gill Sans" font-size="27.0" fill="#000000" transform="matrix(1.00, 0.00, -0.00, -1.00, 146.7, 365.7)">l</text><text xml:space="preserve" font-family="GillSans-Light,Gill Sans" font-size="27.0" fill="#000000" transform="matrix(1.00, 0.00, -0.00, -1.00, 151.8, 365.7)">g</text><text xml:space="preserve" font-family="GillSans-Light,Gill Sans" font-size="27.0" fill="#000000" transform="matrix(1.00, 0.00, -0.00, -1.00, 163.3, 365.7)">u</text><text xml:space="preserve" font-family="GillSans-Light,Gill Sans" font-size="27.0" fill="#000000" transform="matrix(1.00, 0.00, -0.00, -1.00, 176.5, 365.7)">n</text><text xml:space="preserve" font-family="GillSans-Light,Gill Sans" font-size="27.0" fill="#000000" transform="matrix(1.00, 0.00, -0.00, -1.00, 189.8, 365.7)">s</text><text xml:space="preserve" font-family="GillSans-Light,Gill Sans" font-size="27.0" fill="#000000" transform="matrix(1.00, 0.00, -0.00, -1.00, 199.3, 365.7)"> </text><text xml:space="preserve" font-family="GillSans-Light,Gill Sans" font-size="27.0" fill="#000000" transform="matrix(1.00, 0.00, -0.00, -1.00, 206.8, 365.7)">d</text><text xml:space="preserve" font-family="GillSans-Light,Gill Sans" font-size="27.0" fill="#000000" transform="matrix(1.00, 0.00, -0.00, -1.00, 220.6, 365.7)">e</text><text xml:space="preserve" font-family="GillSans-Light,Gill Sans" font-size="27.0" fill="#000000" transform="matrix(1.00, 0.00, -0.00, -1.00, 233.5, 365.7)"> </text><text xml:space="preserve" font-family="GillSans-Light,Gill Sans" font-size="27.0" fill="#000000" transform="matrix(1.00, 0.00, -0.00, -1.00, 241.0, 365.7)">s</text><text xml:space="preserve" font-family="GillSans-Light,Gill Sans" font-size="27.0" fill="#000000" transform="matrix(1.00, 0.00, -0.00, -1.00, 250.6, 365.7)">e</text><text xml:space="preserve" font-family="GillSans-Light,Gill Sans" font-size="27.0" fill="#000000" transform="matrix(1.00, 0.00, -0.00, -1.00, 263.5, 365.7)">u</text><text xml:space="preserve" font-family="GillSans-Light,Gill Sans" font-size="27.0" fill="#000000" transform="matrix(1.00, 0.00, -0.00, -1.00, 276.8, 365.7)">s</text><text xml:space="preserve" font-family="GillSans-Light,Gill Sans" font-size="27.0" fill="#000000" transform="matrix(1.00, 0.00, -0.00, -1.00, 286.3, 365.7)"> </text><text xml:space="preserve" font-family="GillSans-Light,Gill Sans" font-size="27.0" fill="#000000" transform="matrix(1.00, 0.00, -0.00, -1.00, 293.8, 365.7)">p</text><text xml:space="preserve" font-family="GillSans-Light,Gill Sans" font-size="27.0" fill="#000000" transform="matrix(1.00, 0.00, -0.00, -1.00, 307.6, 365.7)">a</text><text xml:space="preserve" font-family="GillSans-Light,Gill Sans" font-size="27.0" fill="#000000" transform="matrix(1.00, 0.00, -0.00, -1.00, 319.1, 365.7)">s</text><text xml:space="preserve" font-family="GillSans-Light,Gill Sans" font-size="27.0" fill="#000000" transform="matrix(1.00, 0.00, -0.00, -1.00, 328.6, 365.7)">s</text><text xml:space="preserve" font-family="GillSans-Light,Gill Sans" font-size="27.0" fill="#000000" transform="matrix(1.00, 0.00, -0.00, -1.00, 338.2, 365.7)">o</text><text xml:space="preserve" font-family="GillSans-Light,Gill Sans" font-size="27.0" fill="#000000" transform="matrix(1.00, 0.00, -0.00, -1.00, 352.8, 365.7)">s</text><text xml:space="preserve" font-family="GillSans-Light,Gill Sans" font-size="27.0" fill="#000000" transform="matrix(1.00, 0.00, -0.00, -1.00, 362.4, 365.7)"> </text><text xml:space="preserve" font-family="GillSans-Light,Gill Sans" font-size="27.0" fill="#000000" transform="matrix(1.00, 0.00, -0.00, -1.00, 369.9, 365.7)">p</text><text xml:space="preserve" font-family="GillSans-Light,Gill Sans" font-size="27.0" fill="#000000" transform="matrix(1.00, 0.00, -0.00, -1.00, 383.6, 365.7)">a</text><text xml:space="preserve" font-family="GillSans-Light,Gill Sans" font-size="27.0" fill="#000000" transform="matrix(1.00, 0.00, -0.00, -1.00, 395.2, 365.7)">r</text><text xml:space="preserve" font-family="GillSans-Light,Gill Sans" font-size="27.0" fill="#000000" transform="matrix(1.00, 0.00, -0.00, -1.00, 404.8, 365.7)">a</text><text xml:space="preserve" font-family="GillSans-Light,Gill Sans" font-size="27.0" fill="#000000" transform="matrix(1.00, 0.00, -0.00, -1.00, 416.3, 365.7)"> </text><text xml:space="preserve" font-family="GillSans-Light,Gill Sans" font-size="27.0" fill="#000000" transform="matrix(1.00, 0.00, -0.00, -1.00, 423.8, 365.7)">a</text><text xml:space="preserve" font-family="GillSans-Light,Gill Sans" font-size="27.0" fill="#000000" transform="matrix(1.00, 0.00, -0.00, -1.00, 435.4, 365.7)">s</text><text xml:space="preserve" font-family="GillSans-Light,Gill Sans" font-size="27.0" fill="#000000" transform="matrix(1.00, 0.00, -0.00, -1.00, 444.9, 365.7)"> </text><text xml:space="preserve" font-family="GillSans-Light,Gill Sans" font-size="27.0" fill="#000000" transform="matrix(1.00, 0.00, -0.00, -1.00, 452.4, 365.7)">s</text><text xml:space="preserve" font-family="GillSans-Light,Gill Sans" font-size="27.0" fill="#000000" transform="matrix(1.00, 0.00, -0.00, -1.00, 462.0, 365.7)">u</text><text xml:space="preserve" font-family="GillSans-Light,Gill Sans" font-size="27.0" fill="#000000" transform="matrix(1.00, 0.00, -0.00, -1.00, 475.2, 365.7)">b</text><text xml:space="preserve" font-family="GillSans-Light,Gill Sans" font-size="27.0" fill="#000000" transform="matrix(1.00, 0.00, -0.00, -1.00, 489.0, 365.7)">c</text><text xml:space="preserve" font-family="GillSans-Light,Gill Sans" font-size="27.0" fill="#000000" transform="matrix(1.00, 0.00, -0.00, -1.00, 500.2, 365.7)">l</text><text xml:space="preserve" font-family="GillSans-Light,Gill Sans" font-size="27.0" fill="#000000" transform="matrix(1.00, 0.00, -0.00, -1.00, 505.3, 365.7)">a</text><text xml:space="preserve" font-family="GillSans-Light,Gill Sans" font-size="27.0" fill="#000000" transform="matrix(1.00, 0.00, -0.00, -1.00, 516.8, 365.7)">s</text><text xml:space="preserve" font-family="GillSans-Light,Gill Sans" font-size="27.0" fill="#000000" transform="matrix(1.00, 0.00, -0.00, -1.00, 526.4, 365.7)">s</text><text xml:space="preserve" font-family="GillSans-Light,Gill Sans" font-size="27.0" fill="#000000" transform="matrix(1.00, 0.00, -0.00, -1.00, 535.9, 365.7)">e</text><text xml:space="preserve" font-family="GillSans-Light,Gill Sans" font-size="27.0" fill="#000000" transform="matrix(1.00, 0.00, -0.00, -1.00, 548.9, 365.7)">s</text><text xml:space="preserve" font-family="GillSans-Light,Gill Sans" font-size="27.0" fill="#000000" transform="matrix(1.00, 0.00, -0.00, -1.00, 558.4, 365.7)">.</text><text xml:space="preserve" font-family="GillSans-Light,Gill Sans" font-size="27.0" fill="#000000" transform="matrix(1.00, 0.00, -0.00, -1.00, 561.0, 365.7)"> </text><text xml:space="preserve" font-family="GillSans-Light,Gill Sans" font-size="27.0" fill="#000000" transform="matrix(1.00, 0.00, -0.00, -1.00, 568.5, 365.7)">O</text><text xml:space="preserve" font-family="GillSans-Light,Gill Sans" font-size="27.0" fill="#000000" transform="matrix(1.00, 0.00, -0.00, -1.00, 590.8, 365.7)"> </text><text xml:space="preserve" font-family="GillSans-Light,Gill Sans" font-size="27.0" fill="#000000" transform="matrix(1.00, 0.00, -0.00, -1.00, 594.5, 365.7)">T</text><text xml:space="preserve" font-family="GillSans-Light,Gill Sans" font-size="27.0" fill="#000000" transform="matrix(1.00, 0.00, -0.00, -1.00, 606.4, 365.7)">e</text><text xml:space="preserve" font-family="GillSans-Light,Gill Sans" font-size="27.0" fill="#000000" transform="matrix(1.00, 0.00, -0.00, -1.00, 619.4, 365.7)">m</text><text xml:space="preserve" font-family="GillSans-Light,Gill Sans" font-size="27.0" fill="#000000" transform="matrix(1.00, 0.00, -0.00, -1.00, 640.2, 365.7)">p</text><text xml:space="preserve" font-family="GillSans-Light,Gill Sans" font-size="27.0" fill="#000000" transform="matrix(1.00, 0.00, -0.00, -1.00, 654.0, 365.7)">l</text><text xml:space="preserve" font-family="GillSans-Light,Gill Sans" font-size="27.0" fill="#000000" transform="matrix(1.00, 0.00, -0.00, -1.00, 659.0, 365.7)">a</text><text xml:space="preserve" font-family="GillSans-Light,Gill Sans" font-size="27.0" fill="#000000" transform="matrix(1.00, 0.00, -0.00, -1.00, 670.6, 365.7)">t</text><text xml:space="preserve" font-family="GillSans-Light,Gill Sans" font-size="27.0" fill="#000000" transform="matrix(1.00, 0.00, -0.00, -1.00, 678.7, 365.7)">e</text><text xml:space="preserve" font-family="GillSans-Light,Gill Sans" font-size="27.0" fill="#000000" transform="matrix(1.00, 0.00, -0.00, -1.00, 691.6, 365.7)"> </text><text xml:space="preserve" font-family="GillSans-Light,Gill Sans" font-size="27.0" fill="#000000" transform="matrix(1.00, 0.00, -0.00, -1.00, 699.1, 365.7)">M</text><text xml:space="preserve" font-family="GillSans-Light,Gill Sans" font-size="27.0" fill="#000000" transform="matrix(1.00, 0.00, -0.00, -1.00, 720.2, 365.7)">e</text><text xml:space="preserve" font-family="GillSans-Light,Gill Sans" font-size="27.0" fill="#000000" transform="matrix(1.00, 0.00, -0.00, -1.00, 733.1, 365.7)">t</text><text xml:space="preserve" font-family="GillSans-Light,Gill Sans" font-size="27.0" fill="#000000" transform="matrix(1.00, 0.00, -0.00, -1.00, 741.3, 365.7)">h</text><text xml:space="preserve" font-family="GillSans-Light,Gill Sans" font-size="27.0" fill="#000000" transform="matrix(1.00, 0.00, -0.00, -1.00, 754.5, 365.7)">o</text><text xml:space="preserve" font-family="GillSans-Light,Gill Sans" font-size="27.0" fill="#000000" transform="matrix(1.00, 0.00, -0.00, -1.00, 769.1, 365.7)">d</text><text xml:space="preserve" font-family="GillSans-Light,Gill Sans" font-size="27.0" fill="#000000" transform="matrix(1.00, 0.00, -0.00, -1.00, 782.9, 365.7)"> </text><text xml:space="preserve" font-family="GillSans-Light,Gill Sans" font-size="27.0" fill="#000000" transform="matrix(1.00, 0.00, -0.00, -1.00, 790.4, 365.7)">p</text><text xml:space="preserve" font-family="GillSans-Light,Gill Sans" font-size="27.0" fill="#000000" transform="matrix(1.00, 0.00, -0.00, -1.00, 804.2, 365.7)">e</text><text xml:space="preserve" font-family="GillSans-Light,Gill Sans" font-size="27.0" fill="#000000" transform="matrix(1.00, 0.00, -0.00, -1.00, 817.1, 365.7)">r</text><text xml:space="preserve" font-family="GillSans-Light,Gill Sans" font-size="27.0" fill="#000000" transform="matrix(1.00, 0.00, -0.00, -1.00, 826.8, 365.7)">m</text><text xml:space="preserve" font-family="GillSans-Light,Gill Sans" font-size="27.0" fill="#000000" transform="matrix(1.00, 0.00, -0.00, -1.00, 847.6, 365.7)">i</text><text xml:space="preserve" font-family="GillSans-Light,Gill Sans" font-size="27.0" fill="#000000" transform="matrix(1.00, 0.00, -0.00, -1.00, 852.6, 365.7)">t</text><text xml:space="preserve" font-family="GillSans-Light,Gill Sans" font-size="27.0" fill="#000000" transform="matrix(1.00, 0.00, -0.00, -1.00, 860.8, 365.7)">e</text><text xml:space="preserve" font-family="GillSans-Light,Gill Sans" font-size="27.0" fill="#000000" transform="matrix(1.00, 0.00, -0.00, -1.00, 873.7, 365.7)"> </text><text xml:space="preserve" font-family="GillSans-Light,Gill Sans" font-size="27.0" fill="#000000" transform="matrix(1.00, 0.00, -0.00, -1.00, 881.2, 365.7)">q</text><text xml:space="preserve" font-family="GillSans-Light,Gill Sans" font-size="27.0" fill="#000000" transform="matrix(1.00, 0.00, -0.00, -1.00, 895.0, 365.7)">u</text><text xml:space="preserve" font-family="GillSans-Light,Gill Sans" font-size="27.0" fill="#000000" transform="matrix(1.00, 0.00, -0.00, -1.00, 908.2, 365.7)">e</text><text xml:space="preserve" font-family="GillSans-Light,Gill Sans" font-size="27.0" fill="#000000" transform="matrix(1.00, 0.00, -0.00, -1.00, 921.2, 365.7)"> </text><text xml:space="preserve" font-family="GillSans-Light,Gill Sans" font-size="27.0" fill="#000000" transform="matrix(1.00, 0.00, -0.00, -1.00, 191.2, 335.7)">a</text><text xml:space="preserve" font-family="GillSans-Light,Gill Sans" font-size="27.0" fill="#000000" transform="matrix(1.00, 0.00, -0.00, -1.00, 202.7, 335.7)">s</text><text xml:space="preserve" font-family="GillSans-Light,Gill Sans" font-size="27.0" fill="#000000" transform="matrix(1.00, 0.00, -0.00, -1.00, 212.3, 335.7)"> </text><text xml:space="preserve" font-family="GillSans-Light,Gill Sans" font-size="27.0" fill="#000000" transform="matrix(1.00, 0.00, -0.00, -1.00, 219.8, 335.7)">s</text><text xml:space="preserve" font-family="GillSans-Light,Gill Sans" font-size="27.0" fill="#000000" transform="matrix(1.00, 0.00, -0.00, -1.00, 229.4, 335.7)">u</text><text xml:space="preserve" font-family="GillSans-Light,Gill Sans" font-size="27.0" fill="#000000" transform="matrix(1.00, 0.00, -0.00, -1.00, 242.6, 335.7)">b</text><text xml:space="preserve" font-family="GillSans-Light,Gill Sans" font-size="27.0" fill="#000000" transform="matrix(1.00, 0.00, -0.00, -1.00, 256.4, 335.7)">c</text><text xml:space="preserve" font-family="GillSans-Light,Gill Sans" font-size="27.0" fill="#000000" transform="matrix(1.00, 0.00, -0.00, -1.00, 267.6, 335.7)">l</text><text xml:space="preserve" font-family="GillSans-Light,Gill Sans" font-size="27.0" fill="#000000" transform="matrix(1.00, 0.00, -0.00, -1.00, 272.7, 335.7)">a</text><text xml:space="preserve" font-family="GillSans-Light,Gill Sans" font-size="27.0" fill="#000000" transform="matrix(1.00, 0.00, -0.00, -1.00, 284.2, 335.7)">s</text><text xml:space="preserve" font-family="GillSans-Light,Gill Sans" font-size="27.0" fill="#000000" transform="matrix(1.00, 0.00, -0.00, -1.00, 293.8, 335.7)">s</text><text xml:space="preserve" font-family="GillSans-Light,Gill Sans" font-size="27.0" fill="#000000" transform="matrix(1.00, 0.00, -0.00, -1.00, 303.3, 335.7)">e</text><text xml:space="preserve" font-family="GillSans-Light,Gill Sans" font-size="27.0" fill="#000000" transform="matrix(1.00, 0.00, -0.00, -1.00, 316.3, 335.7)">s</text><text xml:space="preserve" font-family="GillSans-Light,Gill Sans" font-size="27.0" fill="#000000" transform="matrix(1.00, 0.00, -0.00, -1.00, 325.8, 335.7)"> </text><text xml:space="preserve" font-family="GillSans-Light,Gill Sans" font-size="27.0" fill="#000000" transform="matrix(1.00, 0.00, -0.00, -1.00, 333.3, 335.7)">r</text><text xml:space="preserve" font-family="GillSans-Light,Gill Sans" font-size="27.0" fill="#000000" transform="matrix(1.00, 0.00, -0.00, -1.00, 342.3, 335.7)">e</text><text xml:space="preserve" font-family="GillSans-Light,Gill Sans" font-size="27.0" fill="#000000" transform="matrix(1.00, 0.00, -0.00, -1.00, 355.2, 335.7)">d</text><text xml:space="preserve" font-family="GillSans-Light,Gill Sans" font-size="27.0" fill="#000000" transform="matrix(1.00, 0.00, -0.00, -1.00, 369.0, 335.7)">e</text><text xml:space="preserve" font-family="GillSans-Light,Gill Sans" font-size="27.0" fill="#000000" transform="matrix(1.00, 0.00, -0.00, -1.00, 381.9, 335.7)">ﬁ</text><text xml:space="preserve" font-family="GillSans-Light,Gill Sans" font-size="27.0" fill="#000000" transform="matrix(1.00, 0.00, -0.00, -1.00, 394.9, 335.7)">n</text><text xml:space="preserve" font-family="GillSans-Light,Gill Sans" font-size="27.0" fill="#000000" transform="matrix(1.00, 0.00, -0.00, -1.00, 408.1, 335.7)">a</text><text xml:space="preserve" font-family="GillSans-Light,Gill Sans" font-size="27.0" fill="#000000" transform="matrix(1.00, 0.00, -0.00, -1.00, 419.6, 335.7)">m</text><text xml:space="preserve" font-family="GillSans-Light,Gill Sans" font-size="27.0" fill="#000000" transform="matrix(1.00, 0.00, -0.00, -1.00, 440.4, 335.7)"> </text><text xml:space="preserve" font-family="GillSans-Light,Gill Sans" font-size="27.0" fill="#000000" transform="matrix(1.00, 0.00, -0.00, -1.00, 447.9, 335.7)">c</text><text xml:space="preserve" font-family="GillSans-Light,Gill Sans" font-size="27.0" fill="#000000" transform="matrix(1.00, 0.00, -0.00, -1.00, 459.2, 335.7)">e</text><text xml:space="preserve" font-family="GillSans-Light,Gill Sans" font-size="27.0" fill="#000000" transform="matrix(1.00, 0.00, -0.00, -1.00, 472.1, 335.7)">r</text><text xml:space="preserve" font-family="GillSans-Light,Gill Sans" font-size="27.0" fill="#000000" transform="matrix(1.00, 0.00, -0.00, -1.00, 483.3, 335.7)">t</text><text xml:space="preserve" font-family="GillSans-Light,Gill Sans" font-size="27.0" fill="#000000" transform="matrix(1.00, 0.00, -0.00, -1.00, 491.4, 335.7)">o</text><text xml:space="preserve" font-family="GillSans-Light,Gill Sans" font-size="27.0" fill="#000000" transform="matrix(1.00, 0.00, -0.00, -1.00, 506.1, 335.7)">s</text><text xml:space="preserve" font-family="GillSans-Light,Gill Sans" font-size="27.0" fill="#000000" transform="matrix(1.00, 0.00, -0.00, -1.00, 515.6, 335.7)"> </text><text xml:space="preserve" font-family="GillSans-Light,Gill Sans" font-size="27.0" fill="#000000" transform="matrix(1.00, 0.00, -0.00, -1.00, 523.1, 335.7)">p</text><text xml:space="preserve" font-family="GillSans-Light,Gill Sans" font-size="27.0" fill="#000000" transform="matrix(1.00, 0.00, -0.00, -1.00, 536.9, 335.7)">a</text><text xml:space="preserve" font-family="GillSans-Light,Gill Sans" font-size="27.0" fill="#000000" transform="matrix(1.00, 0.00, -0.00, -1.00, 548.4, 335.7)">s</text><text xml:space="preserve" font-family="GillSans-Light,Gill Sans" font-size="27.0" fill="#000000" transform="matrix(1.00, 0.00, -0.00, -1.00, 557.9, 335.7)">s</text><text xml:space="preserve" font-family="GillSans-Light,Gill Sans" font-size="27.0" fill="#000000" transform="matrix(1.00, 0.00, -0.00, -1.00, 567.5, 335.7)">o</text><text xml:space="preserve" font-family="GillSans-Light,Gill Sans" font-size="27.0" fill="#000000" transform="matrix(1.00, 0.00, -0.00, -1.00, 582.1, 335.7)">s</text><text xml:space="preserve" font-family="GillSans-Light,Gill Sans" font-size="27.0" fill="#000000" transform="matrix(1.00, 0.00, -0.00, -1.00, 591.7, 335.7)"> </text><text xml:space="preserve" font-family="GillSans-Light,Gill Sans" font-size="27.0" fill="#000000" transform="matrix(1.00, 0.00, -0.00, -1.00, 599.2, 335.7)">d</text><text xml:space="preserve" font-family="GillSans-Light,Gill Sans" font-size="27.0" fill="#000000" transform="matrix(1.00, 0.00, -0.00, -1.00, 612.9, 335.7)">e</text><text xml:space="preserve" font-family="GillSans-Light,Gill Sans" font-size="27.0" fill="#000000" transform="matrix(1.00, 0.00, -0.00, -1.00, 625.9, 335.7)"> </text><text xml:space="preserve" font-family="GillSans-Light,Gill Sans" font-size="27.0" fill="#000000" transform="matrix(1.00, 0.00, -0.00, -1.00, 633.4, 335.7)">u</text><text xml:space="preserve" font-family="GillSans-Light,Gill Sans" font-size="27.0" fill="#000000" transform="matrix(1.00, 0.00, -0.00, -1.00, 646.6, 335.7)">m</text><text xml:space="preserve" font-family="GillSans-Light,Gill Sans" font-size="27.0" fill="#000000" transform="matrix(1.00, 0.00, -0.00, -1.00, 667.4, 335.7)"> </text><text xml:space="preserve" font-family="GillSans-Light,Gill Sans" font-size="27.0" fill="#000000" transform="matrix(1.00, 0.00, -0.00, -1.00, 674.9, 335.7)">a</text><text xml:space="preserve" font-family="GillSans-Light,Gill Sans" font-size="27.0" fill="#000000" transform="matrix(1.00, 0.00, -0.00, -1.00, 686.4, 335.7)">l</text><text xml:space="preserve" font-family="GillSans-Light,Gill Sans" font-size="27.0" fill="#000000" transform="matrix(1.00, 0.00, -0.00, -1.00, 691.5, 335.7)">g</text><text xml:space="preserve" font-family="GillSans-Light,Gill Sans" font-size="27.0" fill="#000000" transform="matrix(1.00, 0.00, -0.00, -1.00, 703.0, 335.7)">o</text><text xml:space="preserve" font-family="GillSans-Light,Gill Sans" font-size="27.0" fill="#000000" transform="matrix(1.00, 0.00, -0.00, -1.00, 717.7, 335.7)">r</text><text xml:space="preserve" font-family="GillSans-Light,Gill Sans" font-size="27.0" fill="#000000" transform="matrix(1.00, 0.00, -0.00, -1.00, 727.3, 335.7)">i</text><text xml:space="preserve" font-family="GillSans-Light,Gill Sans" font-size="27.0" fill="#000000" transform="matrix(1.00, 0.00, -0.00, -1.00, 732.4, 335.7)">t</text><text xml:space="preserve" font-family="GillSans-Light,Gill Sans" font-size="27.0" fill="#000000" transform="matrix(1.00, 0.00, -0.00, -1.00, 740.6, 335.7)">m</text><text xml:space="preserve" font-family="GillSans-Light,Gill Sans" font-size="27.0" fill="#000000" transform="matrix(1.00, 0.00, -0.00, -1.00, 761.4, 335.7)">o</text><text xml:space="preserve" font-family="GillSans-Light,Gill Sans" font-size="27.0" fill="#000000" transform="matrix(1.00, 0.00, -0.00, -1.00, 776.0, 335.7)"> </text><text xml:space="preserve" font-family="GillSans-Light,Gill Sans" font-size="27.0" fill="#000000" transform="matrix(1.00, 0.00, -0.00, -1.00, 783.5, 335.7)">s</text><text xml:space="preserve" font-family="GillSans-Light,Gill Sans" font-size="27.0" fill="#000000" transform="matrix(1.00, 0.00, -0.00, -1.00, 793.1, 335.7)">e</text><text xml:space="preserve" font-family="GillSans-Light,Gill Sans" font-size="27.0" fill="#000000" transform="matrix(1.00, 0.00, -0.00, -1.00, 806.0, 335.7)">m</text><text xml:space="preserve" font-family="GillSans-Light,Gill Sans" font-size="27.0" fill="#000000" transform="matrix(1.00, 0.00, -0.00, -1.00, 826.8, 335.7)"> </text><text xml:space="preserve" font-family="GillSans-Light,Gill Sans" font-size="27.0" fill="#000000" transform="matrix(1.00, 0.00, -0.00, -1.00, 834.3, 335.7)">a</text><text xml:space="preserve" font-family="GillSans-Light,Gill Sans" font-size="27.0" fill="#000000" transform="matrix(1.00, 0.00, -0.00, -1.00, 845.8, 335.7)">l</text><text xml:space="preserve" font-family="GillSans-Light,Gill Sans" font-size="27.0" fill="#000000" transform="matrix(1.00, 0.00, -0.00, -1.00, 850.9, 335.7)">t</text><text xml:space="preserve" font-family="GillSans-Light,Gill Sans" font-size="27.0" fill="#000000" transform="matrix(1.00, 0.00, -0.00, -1.00, 859.0, 335.7)">e</text><text xml:space="preserve" font-family="GillSans-Light,Gill Sans" font-size="27.0" fill="#000000" transform="matrix(1.00, 0.00, -0.00, -1.00, 872.0, 335.7)">r</text><text xml:space="preserve" font-family="GillSans-Light,Gill Sans" font-size="27.0" fill="#000000" transform="matrix(1.00, 0.00, -0.00, -1.00, 881.6, 335.7)">a</text><text xml:space="preserve" font-family="GillSans-Light,Gill Sans" font-size="27.0" fill="#000000" transform="matrix(1.00, 0.00, -0.00, -1.00, 893.2, 335.7)">r</text><text xml:space="preserve" font-family="GillSans-Light,Gill Sans" font-size="27.0" fill="#000000" transform="matrix(1.00, 0.00, -0.00, -1.00, 902.1, 335.7)"> </text><text xml:space="preserve" font-family="GillSans-Light,Gill Sans" font-size="27.0" fill="#000000" transform="matrix(1.00, 0.00, -0.00, -1.00, 909.6, 335.7)">a</text><text xml:space="preserve" font-family="GillSans-Light,Gill Sans" font-size="27.0" fill="#000000" transform="matrix(1.00, 0.00, -0.00, -1.00, 921.2, 335.7)"> </text><text xml:space="preserve" font-family="GillSans-Light,Gill Sans" font-size="27.0" fill="#000000" transform="matrix(1.00, 0.00, -0.00, -1.00, 592.2, 305.7)">e</text><text xml:space="preserve" font-family="GillSans-Light,Gill Sans" font-size="27.0" fill="#000000" transform="matrix(1.00, 0.00, -0.00, -1.00, 605.2, 305.7)">s</text><text xml:space="preserve" font-family="GillSans-Light,Gill Sans" font-size="27.0" fill="#000000" transform="matrix(1.00, 0.00, -0.00, -1.00, 614.7, 305.7)">t</text><text xml:space="preserve" font-family="GillSans-Light,Gill Sans" font-size="27.0" fill="#000000" transform="matrix(1.00, 0.00, -0.00, -1.00, 622.9, 305.7)">r</text><text xml:space="preserve" font-family="GillSans-Light,Gill Sans" font-size="27.0" fill="#000000" transform="matrix(1.00, 0.00, -0.00, -1.00, 632.9, 305.7)">u</text><text xml:space="preserve" font-family="GillSans-Light,Gill Sans" font-size="27.0" fill="#000000" transform="matrix(1.00, 0.00, -0.00, -1.00, 646.2, 305.7)">t</text><text xml:space="preserve" font-family="GillSans-Light,Gill Sans" font-size="27.0" fill="#000000" transform="matrix(1.00, 0.00, -0.00, -1.00, 654.3, 305.7)">u</text><text xml:space="preserve" font-family="GillSans-Light,Gill Sans" font-size="27.0" fill="#000000" transform="matrix(1.00, 0.00, -0.00, -1.00, 667.6, 305.7)">r</text><text xml:space="preserve" font-family="GillSans-Light,Gill Sans" font-size="27.0" fill="#000000" transform="matrix(1.00, 0.00, -0.00, -1.00, 677.2, 305.7)">a</text><text xml:space="preserve" font-family="GillSans-Light,Gill Sans" font-size="27.0" fill="#000000" transform="matrix(1.00, 0.00, -0.00, -1.00, 688.8, 305.7)"> </text><text xml:space="preserve" font-family="GillSans-Light,Gill Sans" font-size="27.0" fill="#000000" transform="matrix(1.00, 0.00, -0.00, -1.00, 696.3, 305.7)">d</text><text xml:space="preserve" font-family="GillSans-Light,Gill Sans" font-size="27.0" fill="#000000" transform="matrix(1.00, 0.00, -0.00, -1.00, 710.0, 305.7)">o</text><text xml:space="preserve" font-family="GillSans-Light,Gill Sans" font-size="27.0" fill="#000000" transform="matrix(1.00, 0.00, -0.00, -1.00, 724.6, 305.7)"> </text><text xml:space="preserve" font-family="GillSans-Light,Gill Sans" font-size="27.0" fill="#000000" transform="matrix(1.00, 0.00, -0.00, -1.00, 732.1, 305.7)">p</text><text xml:space="preserve" font-family="GillSans-Light,Gill Sans" font-size="27.0" fill="#000000" transform="matrix(1.00, 0.00, -0.00, -1.00, 745.9, 305.7)">r</text><text xml:space="preserve" font-family="GillSans-Light,Gill Sans" font-size="27.0" fill="#000000" transform="matrix(1.00, 0.00, -0.00, -1.00, 754.9, 305.7)">ó</text><text xml:space="preserve" font-family="GillSans-Light,Gill Sans" font-size="27.0" fill="#000000" transform="matrix(1.00, 0.00, -0.00, -1.00, 769.5, 305.7)">p</text><text xml:space="preserve" font-family="GillSans-Light,Gill Sans" font-size="27.0" fill="#000000" transform="matrix(1.00, 0.00, -0.00, -1.00, 783.3, 305.7)">r</text><text xml:space="preserve" font-family="GillSans-Light,Gill Sans" font-size="27.0" fill="#000000" transform="matrix(1.00, 0.00, -0.00, -1.00, 792.9, 305.7)">i</text><text xml:space="preserve" font-family="GillSans-Light,Gill Sans" font-size="27.0" fill="#000000" transform="matrix(1.00, 0.00, -0.00, -1.00, 798.0, 305.7)">o</text><text xml:space="preserve" font-family="GillSans-Light,Gill Sans" font-size="27.0" fill="#000000" transform="matrix(1.00, 0.00, -0.00, -1.00, 812.7, 305.7)"> </text><text xml:space="preserve" font-family="GillSans-Light,Gill Sans" font-size="27.0" fill="#000000" transform="matrix(1.00, 0.00, -0.00, -1.00, 820.2, 305.7)">a</text><text xml:space="preserve" font-family="GillSans-Light,Gill Sans" font-size="27.0" fill="#000000" transform="matrix(1.00, 0.00, -0.00, -1.00, 831.7, 305.7)">l</text><text xml:space="preserve" font-family="GillSans-Light,Gill Sans" font-size="27.0" fill="#000000" transform="matrix(1.00, 0.00, -0.00, -1.00, 836.7, 305.7)">g</text><text xml:space="preserve" font-family="GillSans-Light,Gill Sans" font-size="27.0" fill="#000000" transform="matrix(1.00, 0.00, -0.00, -1.00, 848.3, 305.7)">o</text><text xml:space="preserve" font-family="GillSans-Light,Gill Sans" font-size="27.0" fill="#000000" transform="matrix(1.00, 0.00, -0.00, -1.00, 862.9, 305.7)">r</text><text xml:space="preserve" font-family="GillSans-Light,Gill Sans" font-size="27.0" fill="#000000" transform="matrix(1.00, 0.00, -0.00, -1.00, 872.6, 305.7)">i</text><text xml:space="preserve" font-family="GillSans-Light,Gill Sans" font-size="27.0" fill="#000000" transform="matrix(1.00, 0.00, -0.00, -1.00, 877.6, 305.7)">t</text><text xml:space="preserve" font-family="GillSans-Light,Gill Sans" font-size="27.0" fill="#000000" transform="matrix(1.00, 0.00, -0.00, -1.00, 885.8, 305.7)">m</text><text xml:space="preserve" font-family="GillSans-Light,Gill Sans" font-size="27.0" fill="#000000" transform="matrix(1.00, 0.00, -0.00, -1.00, 906.6, 305.7)">o</text></g></svg>